<?xml version="1.0" standalone="no"?>
<!DOCTYPE svg PUBLIC "-//W3C//DTD SVG 20010904//EN"
 "http://www.w3.org/TR/2001/REC-SVG-20010904/DTD/svg10.dtd">
<svg version="1.0" xmlns="http://www.w3.org/2000/svg"
 width="512.000000pt" height="512.000000pt" viewBox="0 0 512.000000 512.000000"
 preserveAspectRatio="xMidYMid meet">

<g transform="translate(0.000000,512.000000) scale(0.100000,-0.100000)"
fill="#000000" stroke="none">
<path d="M815 5105 c-117 -21 -221 -62 -342 -132 -40 -23 -41 -25 -24 -42 10
-10 36 -51 57 -91 20 -40 43 -74 49 -76 7 -3 -31 -49 -84 -102 -76 -76 -106
-115 -141 -182 -24 -47 -49 -103 -56 -125 l-12 -40 -108 3 c-81 3 -112 7 -120
18 -32 41 -35 -133 -32 -1826 l3 -1675 22 -80 c107 -394 407 -671 799 -740
130 -23 3338 -23 3468 0 259 45 492 190 641 399 62 88 130 235 157 342 l23 89
0 1715 0 1715 -23 89 c-90 355 -365 632 -722 728 l-85 23 -1700 1 c-1361 2
-1714 0 -1770 -11z m2015 -18 c57 -19 31 -20 -95 -3 -73 10 -102 10 -107 2 -6
-8 -11 -6 -18 4 -8 12 -9 9 -8 -12 2 -20 8 -28 21 -28 10 0 15 5 12 10 -3 6
-2 10 4 10 5 0 13 -4 16 -10 3 -5 1 -10 -4 -10 -6 0 -11 -5 -11 -11 0 -6 9 -9
20 -6 17 4 20 2 14 -15 -4 -14 -2 -18 5 -14 6 4 11 2 11 -4 0 -6 7 -18 15 -27
8 -8 13 -19 10 -24 -4 -5 -1 -9 4 -9 6 0 11 7 11 15 0 24 21 17 56 -19 22 -23
29 -36 21 -40 -6 -3 -2 -3 11 0 12 3 22 1 22 -4 0 -5 -35 -19 -77 -31 -43 -12
-92 -26 -109 -31 -17 -6 -41 -10 -53 -10 -30 0 -141 -49 -141 -62 0 -6 7 -7
16 -4 18 7 58 -34 80 -81 8 -20 24 -35 39 -39 14 -3 22 -10 19 -15 -3 -5 1 -9
9 -9 9 0 17 -21 24 -67 l10 -68 -34 -31 c-37 -34 -40 -46 -17 -68 22 -22 37
-20 22 3 -10 16 -9 25 2 46 14 25 14 26 22 6 4 -12 9 -21 11 -21 2 0 3 42 3
94 -1 91 0 94 18 78 14 -13 17 -27 13 -65 -2 -26 0 -50 4 -53 5 -3 9 2 9 11 0
9 7 23 15 31 8 9 15 12 15 7 0 -4 11 -9 25 -9 14 -1 25 1 25 5 0 3 13 6 30 7
16 1 42 9 57 20 15 10 32 17 37 16 5 -2 6 6 3 17 -3 15 -1 18 11 14 10 -4 13
-2 8 5 -4 7 -16 12 -27 12 -11 0 -17 5 -14 10 4 6 11 8 16 5 5 -4 9 -1 9 4 0
6 10 12 23 12 22 2 22 2 0 6 -12 2 -24 10 -27 18 -3 10 4 13 30 10 29 -3 33
-1 23 11 -14 17 2 19 19 2 16 -16 15 -28 -3 -28 -20 0 -19 -17 3 -29 14 -9 13
-10 -10 -11 -35 0 -37 -26 -3 -32 13 -3 22 -1 19 3 -3 5 -1 9 5 9 17 0 24 -22
10 -31 -11 -7 -10 -9 4 -9 22 0 22 -9 0 -26 -17 -11 -16 -13 9 -19 15 -4 29
-13 32 -21 3 -8 12 -14 20 -14 8 0 18 -5 22 -12 5 -8 1 -9 -12 -5 -14 5 -12 2
6 -13 14 -11 33 -20 42 -20 9 0 20 -4 23 -10 17 -28 169 5 228 51 25 19 43 38
40 42 -3 4 -10 3 -17 -2 -8 -7 -12 -5 -13 7 -3 41 -23 72 -45 72 -19 0 -20 2
-8 10 13 8 12 10 -3 10 -10 0 -15 4 -12 10 3 5 -6 12 -20 16 -16 4 -25 13 -25
25 0 10 0 21 0 24 0 3 3 5 8 4 4 -1 6 -5 5 -10 -4 -12 14 -12 22 0 3 6 -8 25
-24 43 -16 18 -31 42 -33 53 -2 11 -10 19 -17 17 -9 -2 -11 3 -8 13 4 8 2 15
-3 15 -5 0 -7 7 -4 15 4 9 0 15 -10 15 -9 0 -16 4 -16 10 0 15 -33 50 -42 44
-4 -3 -8 2 -8 10 0 9 -3 15 -8 14 -4 -2 -18 7 -32 20 -42 39 -7 23 48 -22 77
-63 128 -128 179 -231 25 -49 59 -105 74 -123 17 -19 26 -38 22 -45 -4 -7 0
-6 10 2 15 12 22 10 52 -13 19 -15 35 -31 35 -37 0 -5 7 -9 15 -9 8 0 15 -4
15 -10 0 -5 6 -9 13 -7 6 1 11 -3 10 -9 -1 -5 2 -26 6 -45 7 -29 5 -35 -9 -35
-12 0 -16 8 -15 27 1 21 -2 25 -17 21 -13 -3 -18 0 -16 9 3 14 -3 19 -23 19
-8 0 -8 -4 0 -14 15 -18 -8 -39 -29 -26 -12 7 -12 12 -3 21 9 9 9 18 2 31 -10
18 -12 18 -34 4 -85 -56 -203 -98 -272 -97 -23 0 -44 -3 -47 -8 -3 -4 5 -7 17
-6 31 3 77 -22 77 -43 1 -16 2 -16 14 1 10 12 16 15 21 7 4 -6 13 -9 21 -6 27
10 -9 -32 -42 -50 l-32 -17 -73 53 c-84 62 -198 122 -212 113 -6 -3 17 -18 51
-33 76 -35 165 -102 181 -136 15 -35 9 -40 -36 -26 -20 6 -39 10 -41 7 -9 -9
45 -27 92 -31 37 -3 45 -1 30 5 -20 9 -39 39 -30 48 6 7 66 -49 61 -57 -8 -14
55 3 67 18 12 14 10 14 -10 3 -20 -11 -27 -10 -43 5 -26 23 -24 28 14 46 33
16 35 15 62 -8 15 -13 31 -24 36 -24 12 0 -3 41 -17 47 -8 3 -14 11 -14 17 0
9 15 12 46 10 45 -3 46 -2 76 47 17 27 35 49 39 49 17 0 9 -36 -16 -71 -13
-20 -21 -40 -17 -43 3 -4 -1 -4 -11 0 -10 4 -17 1 -17 -6 0 -7 -11 -21 -26
-32 -14 -11 -23 -22 -20 -25 2 -3 14 5 25 16 12 12 29 21 38 21 13 0 14 -3 5
-12 -15 -15 -16 -32 -2 -23 6 3 10 2 10 -3 0 -12 -49 -85 -64 -94 -20 -13 -61
-2 -90 25 -47 44 -42 22 9 -38 67 -78 98 -99 140 -92 43 7 82 -11 88 -40 2
-13 0 -23 -4 -23 -5 0 -9 -8 -9 -17 0 -13 3 -14 12 -5 19 19 30 14 18 -7 -13
-25 -47 -17 -53 13 -3 14 -5 10 -6 -11 0 -18 -6 -33 -12 -33 -5 0 -7 -4 -4
-10 3 -5 -2 -11 -12 -11 -10 -1 -22 -2 -28 -4 -5 -1 -16 -3 -24 -3 -7 -1 -11
-8 -8 -16 4 -10 1 -13 -9 -9 -20 7 -66 -6 -59 -17 3 -6 -1 -10 -9 -10 -8 0
-18 5 -21 10 -10 16 -35 11 -36 -7 0 -10 -6 -2 -13 17 -10 28 -19 36 -45 40
-35 6 -42 20 -14 31 10 4 -12 6 -49 3 -41 -2 -68 0 -68 6 0 6 -6 10 -13 10
-13 0 -47 34 -47 47 0 4 -12 20 -27 35 l-27 28 32 0 c17 0 51 -11 76 -25 25
-14 48 -25 52 -25 15 0 -39 49 -67 60 -29 12 -100 10 -131 -4 -15 -7 -18 -3
-18 18 0 15 7 40 15 56 9 17 13 30 10 30 -3 0 -17 -25 -30 -55 -14 -31 -31
-55 -39 -55 -8 0 -19 -7 -24 -17 -11 -18 -42 -11 -41 9 0 10 2 10 6 1 2 -7 9
-13 14 -13 6 0 7 5 3 11 -3 6 -2 14 4 18 6 3 13 20 16 36 3 17 15 38 27 48 12
9 18 17 13 17 -4 0 3 11 16 25 12 13 27 22 33 18 6 -4 7 -1 1 8 -5 8 -9 19 -9
24 -1 20 -40 75 -57 81 -10 3 -18 15 -18 27 -1 20 -2 20 -11 5 -5 -10 -15 -18
-22 -18 -7 0 -6 4 3 10 13 8 12 10 -2 10 -10 0 -18 -7 -18 -16 0 -10 -6 -14
-15 -10 -8 3 -15 1 -15 -5 0 -6 -4 -8 -8 -5 -5 3 -18 -4 -30 -14 -12 -11 -26
-20 -31 -20 -5 0 -13 -9 -16 -21 -4 -12 -12 -18 -21 -15 -8 3 -21 -6 -31 -22
-24 -37 -103 -113 -112 -108 -10 6 -41 -30 -34 -38 4 -3 -5 -6 -18 -6 -15 0
-34 -12 -49 -30 -29 -35 -36 -37 -45 -10 -8 25 -29 27 -23 2 7 -27 -15 -52
-41 -47 -17 3 -21 0 -17 -10 3 -9 0 -15 -9 -15 -8 0 -18 -7 -22 -15 -5 -8 -23
-15 -41 -17 -20 -1 -31 -7 -28 -14 3 -7 -11 -14 -37 -18 -23 -4 -45 -12 -50
-19 -6 -8 -7 -6 -3 6 3 9 2 17 -2 17 -5 0 -18 18 -31 40 -12 22 -27 38 -32 34
-6 -3 -4 -15 5 -30 9 -13 16 -29 16 -37 0 -18 -36 -19 -51 -1 -6 8 -8 14 -3
14 5 0 -2 6 -16 13 -21 11 -27 11 -37 -2 -11 -14 -12 -12 -13 13 0 22 3 27 18
22 14 -5 13 -3 -3 9 -13 10 -16 18 -9 23 6 4 14 15 17 26 4 11 13 16 22 12 9
-3 15 0 15 9 0 8 14 21 30 30 17 9 30 19 30 23 0 4 12 13 28 19 15 7 39 24 55
38 15 15 36 27 47 28 11 1 20 8 20 17 0 9 3 11 8 5 4 -5 15 -17 25 -25 17 -13
19 -12 15 9 -2 17 3 26 19 32 13 5 25 4 28 -1 10 -16 25 -11 19 5 -4 9 0 15 9
15 8 0 18 10 22 23 3 12 9 17 11 11 3 -7 14 -10 24 -7 25 7 26 -12 3 -26 -17
-10 -17 -10 0 -11 19 0 87 41 87 53 0 5 -10 1 -22 -7 -27 -19 -38 -20 -38 -3
0 6 14 20 30 29 27 15 30 15 39 1 7 -14 11 -12 26 11 16 25 18 25 31 9 12 -17
13 -17 14 4 0 12 6 23 13 26 9 3 8 14 -4 48 -17 47 -11 93 16 132 10 14 11 26
3 48 -11 33 -110 140 -145 158 -34 17 -178 14 -193 -4 -14 -17 -35 -21 -25 -5
4 6 -7 10 -24 10 -20 0 -31 -5 -31 -14 0 -8 -5 -18 -12 -22 -8 -5 -9 -2 -5 10
6 15 2 16 -41 11 -71 -10 -150 -34 -221 -67 -35 -16 -88 -32 -118 -35 -50 -6
-52 -6 -29 -19 52 -26 196 -21 196 8 0 4 16 8 35 8 25 0 33 -4 29 -14 -3 -8
-15 -11 -30 -8 -14 2 -24 0 -24 -7 0 -7 6 -9 13 -5 6 4 9 3 4 -1 -8 -10 -36
-14 -120 -19 -32 -3 -61 -7 -64 -10 -4 -3 -14 -6 -24 -6 -9 0 -20 -6 -23 -12
-3 -10 -8 -9 -18 2 -8 8 -26 26 -42 40 -29 25 -29 25 -23 3 3 -13 1 -26 -4
-29 -5 -3 -9 -11 -8 -17 3 -26 -2 -38 -12 -31 -8 4 -7 9 2 15 12 7 12 9 0 9
-18 0 -51 -29 -51 -45 0 -7 8 -16 17 -19 14 -6 13 -9 -8 -23 -13 -9 -27 -22
-31 -27 -5 -8 -8 -7 -8 1 0 6 9 18 20 26 20 14 17 27 -7 27 -7 0 -12 -6 -10
-12 1 -9 -10 -12 -35 -10 -25 2 -38 -1 -38 -8 0 -7 6 -10 14 -7 8 3 20 -1 27
-9 10 -12 7 -20 -18 -42 -16 -15 -46 -42 -67 -60 l-36 -33 -7 31 c-4 22 -8 28
-14 18 -5 -7 -6 -22 -3 -33 4 -15 3 -16 -4 -6 -6 8 -12 10 -16 3 -4 -6 2 -16
11 -22 16 -10 16 -10 -4 -5 -12 3 -24 1 -28 -5 -3 -5 -14 -10 -24 -10 -16 0
-18 8 -15 52 2 51 -7 78 -28 78 -6 0 -5 -6 2 -14 9 -12 8 -28 -4 -76 -9 -34
-16 -64 -16 -66 0 -2 -18 -11 -40 -20 -23 -9 -41 -23 -41 -33 -1 -14 -2 -13
-6 2 -4 17 -33 25 -33 8 0 -4 -12 -6 -27 -3 -21 4 -25 2 -20 -10 3 -9 0 -15
-6 -15 -34 1 -47 -4 -47 -18 0 -12 -9 -15 -40 -11 -22 3 -40 1 -40 -5 0 -5 -5
-9 -11 -9 -15 0 -79 -65 -79 -80 0 -5 -4 -10 -9 -10 -5 0 -12 -8 -16 -19 -3
-10 -14 -29 -25 -41 -19 -22 -26 -56 -21 -108 3 -33 65 -117 85 -116 8 1 13
-2 11 -6 -3 -5 16 -12 42 -16 27 -3 53 -9 58 -13 6 -3 34 -7 62 -7 43 -2 65
-10 115 -42 35 -21 63 -45 63 -52 0 -7 6 -15 13 -18 7 -2 10 2 6 12 -7 18 7
21 23 5 22 -22 77 -13 130 22 40 27 68 58 124 144 40 61 80 130 89 155 23 66
52 122 73 145 11 11 26 30 34 42 8 13 20 20 26 16 6 -4 7 -1 3 6 -11 17 23 51
51 51 17 0 23 6 23 23 0 17 2 19 10 7 8 -13 13 -12 37 6 15 12 29 26 29 33 1
6 2 21 4 34 1 12 4 16 7 10 7 -20 43 -16 43 5 0 13 2 14 9 3 6 -9 11 -10 15
-2 4 6 4 16 0 23 -5 8 0 9 15 5 22 -5 47 23 33 38 -4 5 1 5 11 2 9 -4 17 -2
17 3 0 6 8 10 18 10 9 0 28 12 41 25 12 14 37 29 55 33 17 4 35 17 40 28 6 14
19 21 39 21 19 0 37 8 49 23 14 18 21 20 33 10 10 -9 18 -9 32 0 16 10 16 11
1 6 -10 -3 -18 -1 -18 4 0 6 6 10 13 11 6 0 35 3 62 5 49 4 49 3 25 -12 -14
-8 -18 -13 -10 -11 8 2 27 1 41 -3 19 -6 26 -4 26 6 0 8 -4 14 -9 14 -5 0 -6
5 -3 11 4 6 13 8 20 5 7 -2 17 0 23 6 8 8 13 3 18 -17 4 -17 9 -23 14 -15 5 8
10 8 14 2 3 -5 -1 -15 -9 -22 -8 -7 -15 -20 -16 -29 0 -12 -2 -11 -9 4 -5 11
-9 15 -9 9 -1 -7 -12 -9 -27 -6 -20 4 -31 -1 -45 -19 -10 -13 -19 -18 -19 -12
0 15 -80 -24 -80 -39 0 -5 -4 -6 -10 -3 -5 3 -10 1 -10 -4 0 -6 -11 -11 -25
-11 -15 0 -36 -11 -51 -27 l-25 -27 -6 22 c-7 29 -29 22 -26 -7 2 -12 -1 -19
-7 -16 -5 3 -17 -3 -27 -14 -9 -11 -20 -18 -25 -15 -5 3 -14 2 -21 -3 -7 -5
-32 -16 -57 -24 -25 -7 -53 -22 -62 -31 -10 -10 -27 -18 -39 -18 -11 0 -18 -4
-15 -9 4 -5 -2 -7 -12 -4 -12 3 -23 -4 -32 -21 -7 -14 -18 -26 -24 -26 -6 0
-17 -9 -24 -20 -7 -11 -19 -20 -28 -20 -8 0 -12 -4 -9 -10 3 -5 0 -10 -7 -10
-7 0 -22 -18 -32 -40 -11 -22 -23 -40 -27 -40 -4 0 -10 -12 -14 -27 -4 -16
-11 -34 -17 -40 -19 -24 -18 -93 2 -113 10 -10 16 -21 12 -24 -3 -3 2 -6 11
-6 17 0 21 -10 18 -42 -1 -9 3 -19 9 -23 15 -10 12 -25 -6 -25 -12 0 -15 -6
-10 -24 4 -17 2 -26 -9 -28 -13 -3 -13 -6 0 -32 13 -24 13 -27 1 -23 -8 3 -17
-1 -20 -9 -3 -8 -12 -14 -19 -14 -8 0 -20 -6 -27 -14 -6 -8 -21 -16 -33 -18
-12 -2 -21 -9 -19 -16 1 -6 -4 -12 -12 -12 -7 0 -19 -7 -26 -15 -17 -20 -25
-19 -38 8 -11 22 -11 22 -17 1 -7 -21 -85 -51 -104 -40 -5 4 -13 1 -16 -5 -4
-5 -13 -8 -20 -5 -8 3 -19 -2 -25 -10 -10 -11 -8 -14 11 -15 19 -1 17 -3 -10
-11 -27 -7 -32 -12 -20 -20 10 -7 3 -8 -24 -4 -24 3 -47 15 -60 29 -70 79 -85
94 -112 112 -39 26 -118 65 -123 61 -7 -7 31 -45 40 -40 4 3 8 0 8 -6 0 -5 12
-23 27 -39 50 -53 58 -66 55 -84 -2 -10 2 -24 8 -32 8 -9 8 -15 2 -15 -6 0
-13 6 -16 13 -4 7 -8 8 -11 2 -18 -34 -26 -38 -69 -38 -25 1 -51 5 -58 9 -7 5
-22 10 -33 12 -11 1 -27 4 -35 5 -8 1 -21 6 -27 10 -7 5 -13 5 -13 0 0 -4 -37
-8 -83 -8 -96 1 -130 -8 -146 -38 -7 -13 -10 -15 -6 -4 4 14 -3 12 -33 -10
-20 -15 -44 -35 -52 -43 -8 -8 -21 -15 -27 -16 -28 -2 -32 -5 -38 -24 -3 -11
-15 -20 -26 -20 -10 0 -19 -6 -19 -12 0 -7 -12 -24 -26 -37 -18 -17 -28 -21
-36 -13 -15 15 6 65 42 101 38 38 46 68 20 76 -23 7 -25 16 -8 33 10 10 10 15
-2 22 -11 7 -17 4 -21 -8 -5 -15 -7 -14 -13 5 -9 27 7 54 44 75 23 13 32 14
46 4 11 -8 14 -18 9 -27 -5 -8 -5 -11 0 -7 13 13 35 -12 35 -40 l0 -26 28 26
c31 30 138 89 194 107 21 7 38 17 38 22 0 5 10 9 23 9 19 1 20 2 5 11 -10 5
-19 8 -22 7 -2 -2 -13 6 -25 16 -12 11 -21 14 -21 9 0 -6 -21 -11 -47 -11 -38
-1 -51 4 -75 27 -16 16 -31 36 -32 46 -1 9 -7 20 -13 23 -10 7 -39 82 -35 94
1 4 -6 4 -16 1 -12 -5 -9 3 11 26 15 18 27 41 27 52 0 28 -30 36 -47 13 -29
-42 -69 -90 -95 -115 -16 -15 -28 -34 -28 -43 0 -9 -5 -16 -10 -16 -17 0 -56
-43 -62 -68 -4 -12 -2 -20 3 -16 9 5 39 -18 39 -31 0 -4 -9 -5 -20 -2 -13 3
-20 0 -20 -9 0 -7 -12 -20 -27 -28 -16 -8 -23 -15 -18 -16 6 0 -1 -6 -15 -13
-14 -7 -31 -25 -38 -40 -7 -15 -18 -27 -23 -27 -6 0 -7 4 -4 10 7 11 -23 2
-43 -13 -25 -20 -55 -96 -48 -122 4 -14 11 -23 16 -20 6 3 10 1 10 -4 0 -6 -4
-11 -10 -11 -5 0 -7 -7 -4 -15 4 -8 12 -15 20 -15 8 0 14 -4 14 -10 0 -5 -4
-10 -10 -10 -5 0 -10 -6 -10 -12 0 -7 -15 -25 -34 -40 l-33 -26 -35 46 c-80
107 -100 210 -58 297 22 45 168 200 240 256 50 38 79 69 138 147 22 29 89 108
149 175 103 114 219 250 305 355 20 25 53 55 74 65 61 31 245 97 255 91 5 -3
9 0 9 6 0 7 8 9 21 5 16 -5 19 -4 14 5 -5 8 -3 11 6 8 8 -3 20 1 27 8 7 7 29
16 50 20 46 8 142 51 142 63 0 14 80 42 101 36 10 -4 19 -13 19 -21 0 -17 20
-19 20 -1 1 12 13 22 84 71 21 14 36 26 32 26 -14 0 -82 -39 -105 -61 -16 -15
-26 -19 -29 -11 -2 7 -9 9 -14 6 -7 -4 -8 -2 -4 4 23 38 433 227 470 217 15
-5 17 -4 7 3 -20 15 204 82 384 117 100 18 338 14 405 -8z m85 -35 c-3 -3 -11
0 -18 7 -9 10 -8 11 6 5 10 -3 15 -9 12 -12z m105 -48 c0 -8 -19 -13 -24 -6
-3 5 1 9 9 9 8 0 15 -2 15 -3z m37 -20 c-3 -3 -12 -4 -19 -1 -8 3 -5 6 6 6 11
1 17 -2 13 -5z m23 -24 c0 -5 -7 -7 -15 -4 -8 4 -15 8 -15 10 0 2 7 4 15 4 8
0 15 -4 15 -10z m-176 -120 c8 -8 6 -15 -6 -24 -22 -16 -23 -26 -3 -26 16 0
20 -12 8 -23 -3 -4 -11 -3 -17 2 -7 6 -27 4 -51 -5 -22 -7 -48 -14 -57 -14
-10 0 -18 -4 -18 -10 0 -5 6 -7 13 -5 6 3 34 9 60 14 37 7 51 5 62 -5 12 -12
15 -11 20 6 3 11 13 20 21 20 17 0 18 -12 2 -29 -11 -11 -9 -13 10 -8 12 3 20
1 17 -3 -4 -7 -81 -23 -120 -25 -5 0 -14 -3 -20 -7 -22 -14 -105 -20 -105 -9
0 7 -4 10 -9 6 -5 -3 -16 1 -23 9 -8 7 -34 17 -57 21 -32 5 -40 10 -30 17 10
7 7 7 -9 3 -26 -7 -82 3 -82 15 0 10 74 40 98 40 9 0 37 -14 62 -30 25 -16 51
-30 59 -30 8 0 -7 14 -32 31 -52 34 -59 49 -24 49 12 0 51 9 87 20 66 20 124
20 144 0z m-2316 -55 c-3 -3 -9 2 -12 12 -6 14 -5 15 5 6 7 -7 10 -15 7 -18z
m2653 -38 c-10 -9 -11 -8 -5 6 3 10 9 15 12 12 3 -3 0 -11 -7 -18z m-1031 -67
c0 -5 -2 -10 -4 -10 -3 0 -8 5 -11 10 -3 6 -1 10 4 10 6 0 11 -4 11 -10z m691
-4 c-13 -15 -61 -19 -61 -4 0 5 5 6 10 3 6 -3 10 -1 10 4 0 6 12 11 26 11 21
0 24 -3 15 -14z m46 8 c-3 -3 -12 -4 -19 -1 -8 3 -5 6 6 6 11 1 17 -2 13 -5z
m-571 -29 c12 -3 39 -7 60 -10 57 -8 87 -15 82 -20 -2 -3 -31 0 -64 5 -32 6
-84 13 -114 16 -30 3 -58 8 -62 11 -5 2 -8 -1 -8 -6 0 -6 -11 -11 -25 -11 -14
0 -25 5 -25 11 0 6 9 9 20 6 11 -3 22 -1 25 3 5 8 64 6 111 -5z m-166 -8 c0
-13 -84 -41 -155 -52 -36 -5 -35 -4 15 13 30 11 70 23 88 27 17 4 32 11 32 16
0 5 5 9 10 9 6 0 10 -6 10 -13z m1130 -81 c0 -3 -4 -8 -10 -11 -5 -3 -10 -1
-10 4 0 6 5 11 10 11 6 0 10 -2 10 -4z m-1653 -98 c-3 -8 -6 -5 -6 6 -1 11 2
17 5 13 3 -3 4 -12 1 -19z m2033 -136 c32 -34 74 -102 121 -195 l72 -142 1
-125 c1 -126 -5 -159 -44 -246 -33 -74 -124 -139 -226 -163 -49 -12 -53 -11
-136 28 -47 22 -89 45 -93 51 -6 9 -2 9 15 0 12 -6 28 -9 36 -6 8 3 13 2 9 -3
-4 -8 70 -9 85 -1 3 1 10 3 15 4 6 1 18 6 28 10 13 6 22 3 33 -13 8 -11 21
-21 27 -21 8 0 8 3 -2 9 -9 6 -10 11 -2 15 6 4 11 16 11 26 0 16 4 17 36 8 45
-12 56 -2 25 21 -18 14 -21 20 -11 26 9 5 11 4 6 -3 -4 -7 -2 -12 3 -12 6 0
11 4 11 8 0 5 10 14 23 20 12 6 16 11 10 11 -19 1 -15 19 5 23 11 2 17 12 17
28 0 20 6 26 30 28 43 5 56 22 16 22 -23 0 -30 3 -24 13 4 6 9 23 11 36 2 14
8 33 13 43 5 10 7 23 3 29 -15 25 -22 78 -10 83 6 2 0 5 -14 6 -22 1 -19 4 18
20 49 22 55 35 12 27 -36 -8 -41 10 -10 38 11 10 20 25 20 34 0 10 -10 4 -30
-19 -16 -19 -33 -31 -37 -27 -4 5 -1 12 6 16 11 7 9 13 -8 27 -11 10 -21 26
-21 35 0 9 -8 20 -17 23 -14 6 -15 9 -4 15 11 7 9 10 -7 15 -11 4 -23 14 -26
22 -4 10 -1 13 7 9 6 -4 -3 7 -20 23 -18 15 -33 37 -33 47 0 21 -37 102 -51
111 -5 3 -9 16 -9 30 l0 25 31 -18 c17 -10 53 -42 79 -71z m-1310 74 c0 -3 -4
-8 -10 -11 -5 -3 -10 -1 -10 4 0 6 5 11 10 11 6 0 10 -2 10 -4z m1198 -84 c2
-7 -2 -10 -12 -6 -9 3 -16 11 -16 16 0 13 23 5 28 -10z m-3348 -32 c0 -24
-229 -27 -238 -2 -3 9 25 12 117 12 70 0 121 -4 121 -10z m3226 -146 c-4 -15
-2 -32 5 -40 8 -10 7 -17 -5 -29 -21 -21 -20 -27 2 -24 33 3 44 -1 39 -15 -3
-8 -1 -17 6 -20 7 -3 1 -3 -13 1 -14 3 -42 7 -63 9 -35 1 -97 37 -97 55 0 4
10 11 23 15 32 10 66 37 67 52 0 7 5 10 10 7 6 -4 7 -11 4 -17 -4 -7 -2 -8 4
-4 7 4 12 14 12 22 0 8 3 14 6 14 3 0 3 -12 0 -26z m-1876 -24 c0 -11 -7 -20
-16 -20 -8 0 -12 5 -9 10 3 6 2 10 -4 10 -5 0 -13 -9 -16 -20 -7 -21 -39 -27
-51 -9 -4 8 0 9 15 4 17 -5 21 -2 21 14 0 18 14 27 48 30 6 0 12 -8 12 -19z
m510 0 c0 -5 -5 -10 -11 -10 -5 0 -7 5 -4 10 3 6 8 10 11 10 2 0 4 -4 4 -10z
m-1025 -20 c8 -13 -5 -13 -25 0 -13 8 -13 10 2 10 9 0 20 -4 23 -10z m-102
-17 c-7 -2 -19 -2 -25 0 -7 3 -2 5 12 5 14 0 19 -2 13 -5z m533 -24 c6 -5 9
-20 6 -34 -3 -18 -11 -25 -28 -25 -13 0 -24 4 -24 9 0 5 -7 16 -15 25 -23 23
-8 47 24 40 14 -4 31 -11 37 -15z m-84 -80 c5 -27 2 -38 -14 -53 -21 -20 -21
-20 -15 3 5 22 5 22 -14 5 -36 -32 -110 14 -80 50 19 23 64 20 79 -4 7 -11 18
-20 25 -20 8 0 8 3 -2 9 -22 14 -24 50 -4 47 11 -2 20 -16 25 -37z m1523 5
c35 -26 51 -56 40 -74 -4 -7 -12 -7 -25 0 -15 8 -20 6 -25 -10 -8 -26 -25 -26
-25 -1 0 16 -8 20 -37 23 -41 3 -56 24 -21 31 13 2 9 4 -9 3 -18 -1 -33 0 -33
4 0 4 80 44 98 49 2 1 19 -11 37 -25z m-1455 -4 c0 -5 -4 -10 -10 -10 -5 0
-10 5 -10 10 0 6 5 10 10 10 6 0 10 -4 10 -10z m2074 -43 c7 -6 6 -7 -4 -4 -8
2 -16 12 -17 23 -2 13 -1 15 4 4 3 -8 11 -19 17 -23z m-2316 -7 c26 0 132 -73
132 -91 0 -16 -44 -16 -72 1 -25 15 -46 17 -117 14 -99 -4 -136 8 -136 45 0
30 51 53 66 30 7 -11 9 -11 9 -1 0 7 6 12 13 11 6 -1 19 0 27 4 36 14 46 14
56 1 6 -8 16 -14 22 -14z m-238 -32 c0 -26 64 -68 103 -68 23 0 36 -4 32 -10
-3 -5 -1 -10 4 -10 6 0 11 4 11 9 0 10 105 5 122 -5 5 -4 8 -17 5 -30 -2 -13
-1 -24 3 -24 4 0 10 -13 12 -30 3 -16 2 -30 -2 -30 -4 0 -6 -12 -5 -27 1 -16
0 -19 -2 -9 -4 16 -7 17 -14 5 -8 -12 -10 -12 -19 1 -7 12 -13 12 -27 4 -14
-9 -33 -4 -93 23 -41 19 -82 41 -92 50 -11 10 -18 12 -18 5 0 -7 5 -12 12 -12
6 0 9 -3 5 -6 -3 -3 -15 -3 -28 1 -17 6 -19 9 -8 17 10 7 6 8 -13 4 -19 -4
-30 -1 -36 10 -5 9 -12 15 -15 15 -20 -3 -25 1 -30 19 -6 25 13 91 25 84 4 -3
5 -11 1 -17 -3 -7 6 0 22 16 30 29 45 34 45 15z m2490 -18 c0 -5 -4 -10 -10
-10 -5 0 -10 5 -10 10 0 6 5 10 10 10 6 0 10 -4 10 -10z m-415 -20 c3 -6 -1
-7 -9 -4 -18 7 -21 14 -7 14 6 0 13 -4 16 -10z m-467 -107 c4 3 34 -3 67 -14
32 -10 68 -19 79 -19 12 0 37 -15 58 -33 20 -17 56 -38 80 -45 23 -7 67 -29
96 -49 29 -20 56 -33 60 -29 4 4 0 11 -8 16 -22 12 -64 50 -56 50 14 0 51 -23
63 -39 7 -9 13 -12 13 -7 0 5 7 3 15 -4 9 -7 18 -10 21 -7 4 3 11 2 18 -4 56
-47 91 -69 94 -59 2 6 -4 18 -14 25 -18 13 -18 14 -1 15 9 0 17 -5 17 -11 0
-7 17 -10 44 -8 24 2 42 1 39 -3 -2 -5 8 -8 24 -8 15 0 61 -14 102 -30 40 -17
79 -30 86 -30 8 0 17 -5 21 -12 10 -16 -213 -3 -291 17 -33 9 -132 52 -220 96
-130 65 -176 83 -245 95 -47 9 -98 22 -115 30 -39 19 -96 69 -88 78 3 3 12 1
19 -5 7 -6 17 -8 22 -6z m149 11 c-3 -3 -12 -4 -19 -1 -8 3 -5 6 6 6 11 1 17
-2 13 -5z m-257 -34 c0 -5 -30 -35 -67 -66 -69 -57 -191 -124 -228 -124 -13 0
-6 7 22 21 25 12 58 41 79 70 19 27 38 48 42 47 4 -1 20 4 35 10 16 7 32 12
37 12 5 0 10 5 12 10 2 6 14 12 27 15 13 2 26 7 29 10 8 8 12 6 12 -5z m344
-25 c6 -9 21 -17 33 -18 12 0 19 -5 17 -9 -3 -4 4 -8 15 -8 11 0 23 -5 26 -10
4 -6 10 -8 15 -5 5 3 12 0 16 -6 5 -9 0 -10 -17 -5 -13 4 -35 9 -49 12 -29 5
-72 35 -78 52 -5 17 9 15 22 -3z m-552 -57 c-7 -7 -12 -8 -12 -2 0 14 12 26
19 19 2 -3 -1 -11 -7 -17z m-18 -17 c8 -13 -62 -66 -104 -79 -37 -11 -135 -32
-151 -32 -6 0 -2 11 8 24 10 13 24 21 30 19 7 -3 13 0 13 7 0 6 5 8 10 5 6 -4
18 -1 27 7 12 9 15 9 9 1 -4 -7 -3 -13 1 -13 5 0 14 9 21 21 10 15 21 20 41
17 16 -2 34 3 46 14 20 20 41 23 49 9z m-271 -88 c-7 -2 -13 -11 -13 -19 0 -8
-10 -14 -22 -14 l-23 0 25 20 c14 11 30 19 35 19 6 0 4 -3 -2 -6z m-1703 -43
c0 -5 -5 -10 -11 -10 -5 0 -7 5 -4 10 3 6 8 10 11 10 2 0 4 -4 4 -10z m2251
-58 c30 -12 63 -28 73 -35 15 -11 9 -12 -42 -3 -34 5 -59 12 -57 15 4 8 -136
4 -186 -4 -53 -9 -183 -97 -215 -145 -15 -22 -30 -37 -35 -34 -5 3 -9 -1 -9
-8 -1 -7 -14 -24 -30 -38 -17 -13 -30 -31 -31 -40 0 -9 -2 -10 -5 -3 -4 9 -11
9 -30 1 -13 -6 -24 -15 -24 -20 0 -4 -9 -8 -21 -8 -18 0 -20 -4 -14 -31 6 -29
6 -30 -13 -20 -34 18 -53 13 -86 -24 -22 -25 -59 -46 -130 -75 -54 -22 -103
-37 -108 -34 -5 3 -15 0 -23 -6 -12 -10 -15 -9 -15 4 0 12 9 16 35 16 19 0 47
8 62 18 51 31 121 87 132 104 9 15 8 17 -11 15 -19 -2 -23 3 -25 28 0 17 -4
42 -7 58 -5 21 -3 27 11 28 10 0 27 2 38 5 11 2 40 6 65 10 56 8 90 21 90 34
0 5 7 10 15 10 8 0 15 5 15 10 0 6 7 10 15 10 8 0 15 5 15 10 0 12 -33 46 -50
52 -18 6 -1 58 19 58 9 0 22 -9 29 -21 11 -18 19 -20 50 -14 20 4 48 15 63 26
32 23 111 57 159 69 62 16 219 6 281 -18z m-555 -9 c-7 -7 -26 7 -26 19 0 6 6
6 15 -2 9 -7 13 -15 11 -17z m60 -44 c4 -8 1 -8 -14 0 -12 6 -24 16 -28 22 -4
8 -1 8 14 0 12 -6 24 -16 28 -22z m-185 -14 c14 10 11 -14 -8 -45 -11 -19 -41
-40 -86 -61 -61 -28 -83 -32 -178 -37 -72 -3 -125 0 -154 8 -65 18 -67 32 -3
26 37 -4 46 -3 28 3 -23 8 -24 9 -3 10 12 1 33 -3 48 -9 14 -5 24 -6 21 -1 -3
5 14 11 39 13 25 2 45 2 45 1 0 -1 -14 -10 -31 -18 -17 -9 -29 -19 -26 -22 12
-11 65 9 95 36 17 16 32 25 34 20 2 -6 18 -6 43 0 33 7 35 9 13 10 -16 1 -28
6 -28 12 0 6 7 8 16 5 8 -3 13 -2 10 3 -3 5 0 14 8 20 11 9 15 9 18 -1 3 -9
12 -4 29 13 29 32 53 41 57 22 2 -7 8 -11 13 -8z m-586 -66 c1 -24 6 -52 10
-62 4 -11 3 -23 -3 -29 -8 -8 -14 -4 -23 15 -7 15 -16 27 -21 27 -5 0 -6 12
-2 28 3 15 7 36 9 47 2 11 4 22 4 23 1 2 6 2 13 0 6 -2 12 -24 13 -49z m-528
1 c0 -46 -4 -50 -17 -15 -5 14 -16 25 -25 25 -8 0 -15 5 -15 11 0 6 9 8 20 4
11 -4 20 -2 20 4 0 6 4 11 9 11 4 0 8 -18 8 -40z m58 30 c3 -5 2 -17 -3 -26
-7 -13 -11 -12 -26 10 -16 25 -16 26 3 26 11 0 23 -4 26 -10z m45 0 c0 -5 -4
-10 -10 -10 -5 0 -10 5 -10 10 0 6 5 10 10 10 6 0 10 -4 10 -10z m-179 -59
c-3 -33 -4 -34 -12 -12 -8 20 -11 22 -26 10 -15 -12 -16 -12 -10 4 4 10 7 22
7 25 0 4 10 8 23 8 20 1 22 -2 18 -35z m428 3 c9 -10 -53 6 -63 17 -6 5 4 5
24 -1 18 -5 35 -12 39 -16z m-489 -18 c0 -19 3 -43 6 -53 5 -14 4 -15 -5 -7
-17 16 -27 94 -12 94 6 0 11 -15 11 -34z m615 -16 c3 -5 2 -10 -4 -10 -5 0
-13 5 -16 10 -3 6 -2 10 4 10 5 0 13 -4 16 -10z m-653 -42 c-9 -9 -12 -7 -12
12 0 19 3 21 12 12 9 -9 9 -15 0 -24z m1753 -3 l20 -16 -20 10 c-11 5 -29 17
-40 26 l-20 16 20 -10 c11 -5 29 -17 40 -26z m615 25 c0 -5 -23 -10 -50 -10
-31 0 -61 -7 -77 -17 -15 -10 -24 -12 -20 -5 9 14 -6 16 -31 3 -23 -11 -114
-33 -119 -28 -6 7 111 48 163 56 71 12 134 13 134 1z m70 -6 c0 -2 -13 -4 -30
-4 -16 0 -30 4 -30 8 0 5 14 7 30 4 17 -2 30 -6 30 -8z m-1698 -19 c-2 -14 -8
-25 -13 -25 -14 0 -11 38 4 43 6 3 13 6 13 6 1 1 -1 -10 -4 -24z m-758 -20
c10 -19 27 -37 37 -40 20 -7 34 -35 16 -35 -16 1 -58 38 -79 72 -21 33 -22 38
-5 38 7 0 21 -16 31 -35z m2499 28 c-7 -2 -19 -2 -25 0 -7 3 -2 5 12 5 14 0
19 -2 13 -5z m-2663 -42 c0 -4 -11 -14 -25 -21 -14 -7 -25 -22 -25 -32 0 -20
-20 -24 -38 -6 -16 16 -62 -9 -62 -34 0 -11 -4 -16 -10 -13 -5 3 -18 1 -27 -4
-10 -6 -12 -11 -5 -11 6 0 12 -4 12 -10 0 -5 -7 -7 -15 -4 -11 4 -13 2 -9 -9
3 -8 -2 -26 -10 -39 -9 -14 -13 -27 -10 -30 10 -10 -16 -48 -32 -48 -12 0 -15
13 -14 68 2 86 2 86 -11 119 -8 21 -7 22 67 19 59 -2 74 0 70 11 -5 12 6 17
26 14 4 0 5 6 2 14 -4 8 -11 15 -17 15 -6 0 -7 3 -4 7 4 3 15 -1 26 -11 21
-19 62 -14 82 10 11 13 29 11 29 -5z m870 4 c7 -8 10 -15 6 -15 -3 0 5 -20 19
-44 13 -24 22 -54 20 -66 -6 -34 -15 -37 -15 -7 0 20 -5 27 -19 27 -23 0 -34
-23 -18 -39 6 -6 8 -11 3 -11 -15 0 -33 25 -28 40 4 12 2 13 -9 3 -18 -18 -27
-16 -32 5 -3 12 -9 7 -21 -20 -9 -21 -21 -38 -26 -38 -5 0 -9 -10 -7 -22 1
-17 -3 -22 -15 -20 -10 2 -18 -2 -18 -8 0 -6 -9 -20 -20 -32 -26 -28 -25 -38
4 -38 19 0 23 4 19 20 -3 11 0 20 6 20 6 0 11 -6 11 -14 0 -11 8 -11 43 -2 23
6 44 13 47 16 3 3 19 7 35 9 32 3 62 17 81 36 14 13 23 84 12 87 -4 2 -12 18
-17 36 -6 20 -6 30 0 27 5 -4 9 -13 9 -21 0 -11 6 -13 19 -9 14 4 23 0 30 -13
6 -11 7 -22 4 -26 -3 -3 -1 -6 5 -6 7 0 12 -5 12 -11 0 -16 70 -79 96 -85 43
-11 35 -46 -17 -75 -11 -5 -48 -9 -82 -7 -34 1 -69 -2 -77 -7 -8 -5 -17 -10
-20 -11 -23 -4 -40 -19 -40 -35 0 -10 -4 -19 -9 -19 -5 0 -12 -13 -16 -30 -4
-16 -11 -30 -16 -30 -5 0 -9 -11 -9 -24 0 -13 -6 -29 -14 -36 -8 -6 -12 -18
-9 -26 3 -9 -2 -14 -16 -14 -12 0 -21 -5 -21 -11 0 -6 -6 -9 -14 -6 -8 3 -17
1 -20 -6 -3 -9 -7 -9 -14 1 -7 11 -10 11 -15 -3 -6 -13 -11 -14 -28 -4 -19 10
-21 9 -15 -6 5 -14 4 -16 -7 -7 -16 14 -88 11 -100 -3 -6 -7 -10 -6 -13 2 -3
7 -12 9 -20 6 -9 -3 -11 -9 -5 -17 7 -8 -23 -11 -112 -11 -96 0 -128 4 -152
17 l-30 17 32 1 c17 0 35 -4 38 -10 3 -5 16 -10 28 -9 12 0 16 3 10 6 -26 10
-11 18 35 18 104 1 126 21 109 101 -6 28 -7 59 -4 68 6 16 9 16 22 2 8 -8 15
-23 16 -33 0 -12 3 -10 9 8 8 29 39 80 55 91 6 5 6 11 -3 20 -6 6 -12 28 -11
48 1 35 1 35 12 8 12 -32 107 -84 134 -73 15 5 12 9 -16 21 -18 8 -42 14 -52
14 -25 0 -24 4 10 53 15 23 38 62 51 86 44 87 160 174 160 119 0 -5 -8 -7 -17
-4 -12 4 -9 -1 6 -12 16 -13 20 -21 12 -26 -14 -9 -5 -26 15 -26 12 0 14 18 5
48 -1 1 -1 5 -1 10 -1 4 -8 17 -16 30 -16 25 -4 31 16 7z m1076 -30 c40 -25
80 -45 87 -45 33 0 24 -16 -19 -32 l-47 -19 -36 27 c-20 14 -48 34 -63 43 -16
9 -28 22 -28 29 0 7 5 10 10 7 6 -3 10 3 10 14 0 12 3 21 6 21 3 0 39 -20 80
-45z m39 27 c-3 -3 -11 0 -18 7 -9 10 -8 11 6 5 10 -3 15 -9 12 -12z m382 -40
c14 -2 23 4 28 17 6 21 6 21 27 1 12 -11 18 -23 14 -27 -4 -4 -11 -1 -16 7 -8
13 -10 12 -10 -2 0 -12 -8 -16 -27 -16 -46 1 -53 -1 -53 -17 0 -8 -6 -15 -14
-15 -8 0 -16 -7 -20 -15 -6 -17 -46 -21 -46 -4 0 8 -5 8 -15 -1 -8 -7 -15 -19
-15 -26 0 -8 -9 -14 -21 -14 -11 0 -17 -5 -14 -10 4 -6 11 -8 16 -5 5 4 9 2 9
-4 0 -5 -19 -12 -41 -16 -23 -4 -37 -10 -31 -14 6 -4 7 -12 3 -20 -5 -7 -13
-11 -18 -8 -6 4 -20 -5 -31 -18 -12 -14 -27 -25 -33 -25 -5 0 -8 -3 -6 -8 3
-4 -5 -20 -18 -36 -26 -32 -45 -35 -260 -37 -120 -2 -125 -1 -125 14 0 18 -37
40 -43 24 -4 -10 -2 62 2 86 0 4 9 15 20 26 16 16 33 18 195 15 99 -2 175 0
172 5 -6 10 81 41 113 41 11 0 26 7 35 15 8 8 19 15 25 15 6 0 8 -7 5 -15 -4
-9 0 -15 9 -15 19 0 33 20 15 21 -10 0 -10 2 0 6 6 2 12 10 12 16 0 7 16 24
34 40 32 25 36 26 46 10 10 -16 11 -16 6 -1 -3 11 2 19 15 23 10 4 19 14 20
23 1 10 4 6 8 -8 4 -15 15 -26 28 -28z m-2639 3 c-3 -3 -9 2 -12 12 -6 14 -5
15 5 6 7 -7 10 -15 7 -18z m2308 9 c18 -14 18 -14 -6 -3 -31 14 -36 19 -24 19
6 0 19 -7 30 -16z m184 12 c0 -2 -13 -9 -30 -15 -35 -12 -41 -5 -7 9 25 10 37
12 37 6z m-1000 -21 c-6 -7 -7 -20 -4 -30 6 -15 4 -16 -14 -6 -30 16 -35 28
-16 39 24 13 46 11 34 -3z m880 -31 c0 -18 -4 -18 -24 5 -17 19 -17 19 3 14
12 -3 21 -12 21 -19z m-409 -31 c-12 -20 -14 -14 -5 12 4 9 9 14 11 11 3 -2 0
-13 -6 -23z m-484 1 c-3 -3 -12 -4 -19 -1 -8 3 -5 6 6 6 11 1 17 -2 13 -5z
m462 -27 c-2 -1 -21 -17 -42 -35 -38 -32 -84 -48 -55 -18 8 7 23 16 35 20 11
4 28 15 38 26 10 11 20 18 23 15 3 -3 3 -6 1 -8z m-153 -22 c-8 -9 -19 -22
-23 -29 -5 -7 -21 -16 -38 -19 -29 -6 -30 -6 -5 5 14 7 28 18 33 25 13 21 39
44 44 39 3 -3 -2 -12 -11 -21z m-700 -13 c-6 -18 -44 -37 -55 -27 -2 3 9 16
24 30 32 27 40 26 31 -3z m1564 -18 c-8 -8 -23 -20 -34 -26 -18 -9 -17 -7 4
15 27 28 51 37 30 11z m-2424 -49 c7 -19 15 -45 15 -57 1 -13 5 -5 9 17 l7 40
2 -48 c0 -27 -3 -46 -8 -43 -8 5 2 -69 14 -104 3 -8 -3 -4 -13 9 -12 14 -25
58 -32 108 -7 46 -17 86 -22 89 -12 7 -10 24 3 24 5 0 17 -16 25 -35z m21 13
c-3 -8 -6 -5 -6 6 -1 11 2 17 5 13 3 -3 4 -12 1 -19z m2321 -23 c-13 -19 -29
-35 -35 -35 -7 0 -13 -4 -13 -10 0 -5 -5 -10 -10 -10 -6 0 -24 -13 -41 -29
-16 -16 -46 -37 -64 -45 -19 -9 -38 -22 -42 -29 -4 -7 -26 -22 -48 -33 -45
-24 -55 -40 -25 -40 13 0 20 7 20 18 0 10 5 18 10 18 6 0 10 -9 10 -19 0 -14
5 -18 20 -14 11 3 20 9 20 13 0 18 226 35 255 18 6 -2 28 -3 50 -2 94 8 126 7
124 -3 -3 -21 3 -22 26 -7 14 9 28 14 32 10 6 -6 -46 -51 -60 -51 -4 0 -11 -5
-15 -11 -23 -34 -139 -91 -202 -99 -8 -1 -37 -5 -65 -9 -27 -3 -72 -7 -100 -8
-27 0 -53 -5 -56 -10 -3 -5 -17 -4 -32 3 -21 10 -30 9 -44 -2 -9 -8 -14 -9
-10 -2 8 13 -46 29 -63 18 -5 -3 -10 -1 -10 5 0 7 -7 9 -16 6 -8 -3 -12 -2 -9
4 3 6 -1 10 -10 10 -13 0 -14 4 -4 23 7 12 18 26 26 30 7 5 11 12 8 17 -3 5 0
12 6 16 6 3 15 0 20 -7 7 -11 9 -10 9 4 0 9 7 17 15 17 8 0 15 5 15 11 0 6 -6
9 -14 6 -8 -3 -53 -13 -101 -23 -82 -16 -87 -16 -103 1 -16 17 -16 17 6 12 29
-7 130 17 190 45 26 12 50 21 55 20 4 -1 7 2 7 8 0 5 7 7 15 4 8 -4 15 -1 15
4 0 6 10 14 22 18 32 10 78 46 72 56 -3 4 2 8 12 8 19 0 113 65 132 92 23 32
23 19 0 -17z m-2418 -21 c6 -14 10 -44 10 -67 0 -27 9 -56 25 -82 30 -49 33
-81 4 -45 -42 52 -49 68 -58 126 -4 32 -12 67 -16 77 -5 12 -3 17 9 17 9 0 21
-12 26 -26z m1702 -4 c4 -23 1 -30 -13 -30 -9 0 -20 7 -23 16 -4 12 -2 15 9
10 10 -4 15 1 15 14 0 30 7 24 12 -10z m-1668 -47 c5 -42 3 -63 -4 -63 -6 0
-10 27 -10 67 0 81 5 79 14 -4z m1630 7 c23 -31 36 -60 26 -60 -16 0 -50 62
-49 90 1 21 2 22 6 5 3 -11 10 -27 17 -35z m1594 13 c56 -15 69 -26 25 -21
-15 2 -28 -2 -30 -9 -3 -7 2 -13 11 -13 9 0 16 -4 16 -10 0 -12 -10 -13 -29
-1 -8 5 -11 16 -8 24 8 21 -14 28 -105 34 -75 6 -78 5 -78 -16 0 -12 6 -21 15
-21 18 0 20 16 3 23 -10 4 -10 6 -1 6 22 2 33 -32 17 -54 -12 -16 -14 -17 -14
-2 0 9 -4 17 -10 17 -5 0 -10 -4 -10 -10 0 -5 -8 -10 -17 -11 -16 0 -15 -1 2
-8 15 -6 10 -9 -25 -15 -25 -4 -55 -13 -67 -21 -15 -10 -24 -11 -29 -4 -3 6
-19 9 -35 5 -21 -4 -29 -1 -32 12 -3 10 -5 7 -6 -9 0 -15 -8 -30 -17 -33 -8
-3 -12 -2 -9 4 3 6 -4 10 -15 10 -15 0 -20 -5 -17 -15 9 -23 -10 -27 -33 -8
-22 19 -26 33 -9 33 20 0 38 26 28 41 -7 11 -9 11 -9 -3 0 -20 -1 -21 -25 -12
-13 5 -14 8 -3 15 10 7 9 9 -4 9 -10 0 -18 6 -18 13 0 8 -22 24 -50 37 -27 13
-48 25 -46 27 2 3 31 -9 65 -26 l61 -30 67 19 c59 16 146 31 248 44 45 5 134
-4 193 -21z m-3309 -30 l-2 -48 -7 40 c-5 30 -8 36 -14 23 -12 -27 13 -125 41
-159 14 -16 23 -32 21 -35 -11 -10 -66 66 -83 112 -9 27 -21 56 -25 65 -11 21
-3 29 26 29 13 0 26 5 29 10 12 19 15 10 14 -37z m2660 5 c39 -18 71 -37 71
-41 0 -14 -150 -5 -165 9 -7 7 -15 11 -18 8 -3 -3 -8 0 -12 5 -3 6 1 14 9 17
9 3 16 10 16 15 0 4 -7 5 -17 2 -11 -4 -14 -3 -9 5 12 20 52 13 125 -20z m824
-45 c32 -17 32 -17 7 -23 -33 -8 -92 11 -80 25 6 7 5 16 -3 24 -14 15 23 2 76
-26z m-96 21 c-3 -3 -12 -4 -19 -1 -8 3 -5 6 6 6 11 1 17 -2 13 -5z m-627 -18
c0 -3 -4 -8 -10 -11 -5 -3 -10 -1 -10 4 0 6 5 11 10 11 6 0 10 -2 10 -4z m-20
-68 c0 -4 -7 -8 -15 -8 -8 0 -15 4 -15 8 0 5 7 9 15 9 8 0 15 -4 15 -9z
m-1649 -105 c-20 -39 -68 -88 -108 -110 -24 -13 -152 -18 -139 -6 4 4 24 6 46
4 68 -5 161 56 192 128 11 25 22 41 25 34 2 -6 -5 -29 -16 -50z m884 7 c3 -5
2 -10 -4 -10 -5 0 -13 5 -16 10 -3 6 -2 10 4 10 5 0 13 -4 16 -10z m40 -30 c4
-6 -5 -10 -19 -10 -14 0 -26 5 -26 10 0 6 9 10 19 10 11 0 23 -4 26 -10z
m1148 -74 c42 -32 75 -61 73 -64 -3 -2 -18 6 -33 18 l-28 22 -3 -22 c-2 -13 3
-29 11 -38 14 -13 23 -12 85 11 111 41 287 77 377 77 164 0 292 -57 383 -172
11 -13 2 -12 -57 6 -38 11 -67 24 -65 28 3 4 11 5 19 1 8 -3 15 0 15 7 0 9 4
9 17 -1 12 -10 15 -11 9 -1 -11 18 -82 62 -101 62 -8 0 -15 5 -15 11 0 7 -10
9 -25 7 -17 -4 -25 -1 -25 8 0 11 -17 18 -32 13 -2 0 -15 4 -30 10 -16 6 -28
7 -28 3 0 -4 -35 -6 -77 -4 -125 4 -355 -51 -337 -80 3 -5 0 -9 -7 -7 -8 1
-23 1 -34 0 -17 -1 -18 -3 -5 -12 12 -8 10 -9 -10 -7 -15 2 -25 -2 -25 -10 0
-18 -25 -32 -57 -32 -18 0 -28 -5 -28 -15 0 -12 -4 -13 -19 -4 -22 14 -56 5
-45 -12 4 -8 3 -9 -4 -5 -8 4 -8 15 -2 31 6 16 6 25 0 25 -6 0 -10 -6 -10 -12
0 -10 -2 -10 -8 -1 -4 6 -23 10 -42 9 -19 -2 -46 1 -60 5 -17 5 -1 8 48 8 39
1 72 4 72 8 0 4 -23 28 -50 53 -49 44 -50 47 -39 78 9 26 16 32 39 32 16 0 30
-3 32 -7 5 -13 101 -83 112 -83 6 0 -1 12 -16 25 -27 23 -38 43 -18 30 23 -14
7 11 -27 43 -51 47 -24 31 70 -42z m-1151 24 c9 -17 15 -30 12 -30 -8 0 -43
43 -44 53 0 17 16 5 32 -23z m807 7 c-24 -19 -109 -65 -109 -59 0 8 90 61 104
62 5 0 7 -1 5 -3z m-143 -69 c4 -6 3 -8 -4 -4 -6 3 -13 2 -17 -4 -3 -5 -14
-10 -23 -10 -12 1 -10 5 8 15 31 18 27 17 36 3z m-485 -43 c31 -8 52 -9 64 -3
11 7 20 7 27 0 7 -7 19 -7 35 -1 18 6 22 6 17 -3 -5 -8 17 -10 87 -6 91 6 92
5 44 -7 -108 -28 -299 -9 -356 36 l-24 19 30 -11 c17 -6 51 -17 76 -24z m410
17 c-7 -2 -18 1 -23 6 -8 8 -4 9 13 5 13 -4 18 -8 10 -11z m-41 -12 c-20 -13
-43 -13 -35 0 3 6 16 10 28 10 18 0 19 -2 7 -10z m777 -16 c-3 -3 -12 -4 -19
-1 -8 3 -5 6 6 6 11 1 17 -2 13 -5z m-476 -45 c19 -26 19 -26 79 -28 22 0 40
-5 40 -10 0 -5 -9 -7 -20 -4 -14 4 -23 -2 -31 -21 -7 -14 -18 -26 -25 -26 -8
0 -11 -6 -8 -15 4 -9 0 -15 -10 -15 -9 0 -16 -4 -16 -10 0 -5 -8 -10 -17 -10
-10 0 -36 -6 -58 -14 -118 -40 -382 -14 -439 44 -20 20 -20 20 -1 36 20 15 20
15 -3 11 -12 -3 -20 -2 -17 3 2 4 23 10 45 14 22 3 40 10 40 14 0 4 19 7 43 7
23 0 49 3 58 7 22 10 75 17 182 25 49 3 83 10 76 14 -7 4 4 6 25 5 27 -2 45
-11 57 -27z m-607 -44 c3 -8 1 -15 -4 -15 -6 0 -10 7 -10 15 0 8 2 15 4 15 2
0 6 -7 10 -15z m742 -13 c-3 -5 -16 -12 -28 -15 -22 -6 -22 -6 2 13 25 19 37
20 26 2z m467 -42 c3 -11 2 -18 -3 -15 -4 3 -10 14 -13 25 -3 11 -2 18 3 15 4
-3 10 -14 13 -25z m97 -50 c11 0 20 -4 20 -8 0 -4 -24 -8 -52 -9 -45 -1 -49 0
-28 8 21 9 23 12 10 22 -8 7 -22 21 -30 32 -8 11 2 5 23 -12 21 -18 47 -33 57
-33z m-3438 -185 c22 -78 23 -95 28 -642 3 -308 2 -559 -2 -556 -5 2 -8 11 -8
19 0 8 -9 14 -20 14 -15 0 -20 -7 -21 -27 -1 -22 -3 -20 -10 12 -4 22 -8 346
-7 720 0 415 4 653 9 610 5 -38 19 -106 31 -150z m4378 144 c-22 -129 -60
-251 -86 -283 -67 -80 -209 -171 -304 -196 -25 -6 -52 -13 -61 -16 -12 -3 -15
2 -12 23 l5 28 -1714 0 -1713 0 1710 5 1710 5 67 26 c102 40 173 87 243 160
69 74 126 177 146 264 17 74 23 63 9 -16z m-1310 32 c0 -5 -21 -16 -47 -24
-70 -22 -94 -26 -87 -16 3 5 13 9 22 10 9 0 35 9 57 19 47 22 55 23 55 11z
m235 -10 c0 -10 -26 -20 -84 -33 -46 -10 -89 -17 -94 -15 -16 5 136 67 158 64
11 -1 20 -8 20 -16z m592 -12 c89 -16 234 -97 296 -166 15 -18 16 -21 3 -26
-9 -4 -18 -1 -22 5 -4 7 -3 8 4 4 7 -4 12 -3 12 3 0 13 -35 32 -44 24 -3 -3
-6 0 -6 8 0 22 -86 75 -92 57 -2 -6 -18 1 -34 16 -17 14 -34 23 -38 19 -3 -3
-6 -2 -6 4 0 9 -23 21 -55 27 -5 1 -17 5 -25 8 -8 3 -31 10 -50 16 -48 14 -20
14 57 1z m-349 -31 c-2 -7 7 -14 20 -16 12 -2 22 1 22 7 0 6 -7 8 -15 5 -8 -4
-15 -1 -15 5 0 6 12 11 26 11 15 0 24 -5 22 -12 -5 -15 58 -71 72 -63 5 3 10
-1 10 -9 0 -9 8 -17 18 -17 16 -1 16 -2 0 -6 -10 -2 -18 -9 -18 -14 0 -14
-108 -11 -112 3 -6 17 -178 -20 -178 -39 0 -7 -5 -13 -11 -13 -6 0 -25 -10
-42 -22 -18 -13 -40 -24 -50 -24 -16 -1 -18 4 -13 27 4 21 0 32 -15 43 -20 14
-18 43 2 31 5 -4 9 1 9 9 0 14 19 21 43 17 5 -1 35 14 66 34 73 44 164 68 159
43z m-1193 -58 c13 -6 15 -9 5 -9 -8 0 -22 4 -30 9 -18 12 -2 12 25 0z m195
-5 c-14 -17 -40 -20 -40 -6 0 5 10 12 23 14 12 2 24 5 26 6 2 0 -2 -6 -9 -14z
m50 6 c0 -5 -7 -14 -16 -21 -8 -8 -19 -21 -25 -31 -8 -16 -5 -18 31 -15 24 2
40 -1 41 -8 0 -6 3 -6 6 2 2 6 9 9 15 6 5 -3 12 3 15 15 7 27 23 27 23 1 0
-26 14 -25 34 3 9 13 15 16 13 7 -3 -20 50 -18 92 3 22 11 31 12 31 4 0 -7 4
-6 9 2 7 11 13 12 23 5 14 -11 41 -12 98 -1 66 12 133 15 119 6 -10 -6 -7 -9
11 -10 14 0 20 -3 14 -5 -7 -3 -10 -13 -7 -23 2 -9 -3 -23 -11 -30 -9 -8 -16
-20 -16 -27 0 -8 -3 -14 -7 -13 -16 2 -53 -14 -53 -22 0 -5 -5 -9 -11 -9 -6 0
-26 -12 -45 -26 -35 -27 -109 -46 -239 -59 -38 -4 -74 -9 -80 -10 -32 -6 -110
-18 -138 -20 -18 -2 -35 -3 -39 -4 -5 -1 -8 -7 -8 -15 0 -11 -5 -12 -25 -3
-14 7 -25 16 -25 22 0 5 -8 -1 -17 -14 l-17 -24 -13 39 c-24 68 -28 146 -9
182 9 18 21 30 26 27 6 -3 7 1 4 10 -5 11 -2 14 10 9 9 -3 16 -11 16 -17 0 -5
8 -3 18 6 10 10 21 15 24 12 3 -3 17 -8 31 -11 21 -3 31 3 53 31 25 34 44 45
44 26z m-175 -11 c3 -5 1 -10 -4 -10 -6 0 -11 5 -11 10 0 6 2 10 4 10 3 0 8
-4 11 -10z m1477 -39 c24 -16 74 -57 109 -91 35 -34 55 -56 44 -49 -21 14
-146 119 -155 130 -3 3 -18 13 -35 22 -16 9 -25 16 -19 17 5 0 31 -13 56 -29z
m262 -60 c4 -5 -5 -4 -19 2 -14 7 -25 16 -25 20 0 9 36 -9 44 -22z m-516 -59
c-15 -3 -18 -14 -18 -63 0 -33 -4 -59 -10 -59 -6 0 -10 28 -10 64 0 53 3 65
18 69 9 2 22 1 27 -2 6 -3 2 -7 -7 -9z m21 -99 c0 -13 -3 -23 -9 -23 -6 0 -9
23 -9 53 1 44 2 48 9 22 4 -16 8 -40 9 -52z m104 57 c20 0 37 -4 37 -9 0 -6
-24 -7 -55 -4 l-55 6 5 -37 c4 -22 2 -36 -4 -36 -6 0 -11 20 -11 46 0 43 2 46
23 40 12 -3 39 -6 60 -6z m-510 -25 c-3 -9 -8 -14 -10 -11 -3 3 -2 9 2 15 9
16 15 13 8 -4z m477 -35 c0 -16 -2 -30 -4 -30 -2 0 -6 14 -8 30 -3 17 -1 30 4
30 4 0 8 -13 8 -30z m40 -12 c0 -36 -4 -35 -14 5 -4 16 -2 27 4 27 5 0 10 -14
10 -32z m37 -10 c-3 -7 -5 -2 -5 12 0 14 2 19 5 13 2 -7 2 -19 0 -25z m-309 5
c-16 -2 -40 -2 -55 0 -16 2 -3 4 27 4 30 0 43 -2 28 -4z m57 -3 c3 -5 1 -10
-4 -10 -6 0 -11 5 -11 10 0 6 2 10 4 10 3 0 8 -4 11 -10z m-3102 -67 c-7 -2
-19 -2 -25 0 -7 3 -2 5 12 5 14 0 19 -2 13 -5z m333 -360 c79 -42 114 -109
100 -188 -6 -29 -11 -35 -34 -36 -15 -1 -31 -1 -36 0 -5 1 -16 -5 -25 -13 -34
-30 -87 -45 -164 -44 -61 1 -81 -3 -97 -17 -24 -21 -26 -67 -5 -85 8 -7 15
-16 15 -21 0 -11 -51 -11 -68 0 -22 13 -26 84 -8 119 25 48 62 62 166 62 77 0
93 3 110 20 25 25 26 74 1 99 -21 21 -18 31 11 31 23 0 23 17 1 28 -25 13
-365 22 -386 11 -28 -16 -39 -47 -31 -95 l6 -45 24 22 c13 12 24 19 24 14 0
-14 -32 -45 -47 -45 -9 0 -13 -12 -12 -37 0 -34 2 -36 12 -19 7 10 22 31 34
45 l22 26 1 -150 c0 -82 -4 -155 -8 -162 -10 -16 -28 -3 -44 32 -12 28 -13 26
-16 -48 -2 -50 1 -84 9 -93 22 -27 -31 -15 -56 12 l-25 27 0 242 c0 236 1 243
23 276 35 53 67 59 277 56 168 -2 189 -4 226 -24z m1250 6 c8 -6 14 -22 14
-36 0 -23 -1 -23 -22 -9 -19 13 -60 15 -297 9 -157 -3 -281 -10 -288 -16 -10
-7 -13 -3 -13 16 0 15 9 33 23 42 20 15 51 16 295 11 187 -3 278 -9 288 -17z
m280 -35 c44 -31 92 -67 107 -80 16 -13 35 -24 42 -24 7 0 64 36 125 80 61 44
118 80 127 80 22 0 53 -19 53 -33 0 -7 -11 -13 -24 -13 -18 -1 -190 -124 -216
-155 -3 -3 -18 -13 -35 -23 l-30 -17 3 -107 c4 -100 6 -108 33 -141 37 -45 42
-87 5 -44 -13 15 -27 25 -30 22 -9 -9 -11 -72 -2 -96 6 -19 4 -23 -12 -23 -44
0 -50 25 -54 205 -3 167 -3 169 19 180 l23 12 -23 19 c-12 11 -40 32 -62 46
-22 14 -69 48 -105 77 -40 32 -71 50 -82 48 -14 -4 -16 -2 -8 13 24 44 56 39
146 -26z m1069 25 c68 -35 97 -79 93 -144 -3 -47 -5 -50 -30 -50 -15 0 -33 -9
-42 -20 -13 -18 -13 -22 5 -41 25 -26 7 -44 -19 -21 -15 14 -27 14 -89 4 -67
-11 -71 -14 -51 -26 32 -20 6 -31 -74 -31 -71 0 -83 9 -47 34 l22 15 -26 6
c-15 4 -40 2 -57 -3 -26 -10 -30 -9 -30 7 0 37 29 47 155 50 114 2 121 3 143
27 27 31 28 54 2 86 -21 27 -11 51 19 41 11 -3 9 1 -6 15 -19 16 -43 20 -195
25 -157 6 -175 5 -198 -12 -35 -26 -36 -45 0 -58 39 -14 39 -33 0 -33 l-30 0
0 -125 c0 -89 3 -125 12 -125 29 0 48 -33 48 -83 l0 -50 -23 21 c-13 12 -26
22 -30 22 -12 0 -8 -105 5 -118 9 -9 6 -12 -13 -12 -14 0 -34 9 -45 21 -18 20
-19 39 -19 279 0 244 1 259 20 280 40 45 68 50 265 48 177 -3 188 -4 235 -29z
m648 24 c59 -5 70 -9 79 -29 6 -12 8 -30 4 -40 -6 -16 -8 -16 -20 1 -13 18
-29 19 -216 17 -135 -1 -207 -5 -216 -13 -9 -8 -14 -34 -14 -80 0 -38 -4 -69
-9 -69 -24 0 -53 38 -58 76 -8 61 12 113 51 130 34 14 275 19 399 7z m-2414
-72 c14 -4 26 -12 29 -19 3 -9 -20 -12 -87 -12 -72 0 -91 3 -91 14 0 22 94 33
149 17z m369 -18 c3 -10 -15 -13 -67 -13 -66 0 -82 6 -64 24 12 12 126 2 131
-11z m1264 -1 c9 -9 -8 -12 -85 -12 -88 0 -119 9 -84 24 22 10 156 1 169 -12z
m-2612 -2 c0 -6 -35 -10 -84 -10 -47 0 -88 5 -91 10 -4 6 27 10 84 10 54 0 91
-4 91 -10z m2100 -10 c0 -11 -75 -70 -89 -70 -22 0 -10 39 19 63 27 24 70 27
70 7z m1300 10 c10 -7 -33 -10 -130 -10 -97 0 -140 3 -130 10 8 5 67 10 130
10 63 0 122 -5 130 -10z m-2301 -283 c0 -155 3 -223 12 -233 20 -24 -35 -17
-57 7 -18 20 -19 39 -19 257 l0 236 25 6 c22 5 26 2 32 -24 4 -17 7 -129 7
-249z m566 235 c37 -26 83 -87 73 -98 -6 -6 -162 109 -173 127 -14 21 56 2
100 -29z m1402 -49 c-2 -16 -4 -5 -4 22 0 28 2 40 4 28 2 -13 2 -35 0 -50z
m-2470 47 c36 -13 54 -46 42 -79 -7 -17 -14 -21 -27 -16 -99 43 -178 -36 -125
-126 21 -36 9 -62 -30 -67 -21 -3 -31 4 -46 29 -55 90 -20 208 73 250 47 21
71 23 113 9z m561 -18 c4 -24 -7 -29 -26 -10 -18 18 -15 40 6 36 9 -2 18 -13
20 -26z m822 -27 c0 -7 -7 -18 -15 -25 -12 -10 -16 -9 -21 4 -9 24 3 47 21 40
8 -3 15 -12 15 -19z m372 -42 c3 -32 3 -80 -1 -106 l-6 -48 -19 32 c-33 56
-23 179 14 179 4 0 10 -26 12 -57z m-1669 -5 c-9 -10 -21 -18 -26 -18 -6 0 -3
8 6 18 10 10 17 25 17 33 0 12 2 12 10 -1 6 -10 4 -20 -7 -32z m1221 14 c2 -4
1 -14 -4 -22 -7 -11 -12 -12 -21 -3 -6 6 -8 16 -5 22 8 13 23 14 30 3z m-746
-229 l-3 -78 -18 37 c-12 26 -17 62 -17 118 0 56 5 92 17 118 l18 37 3 -77 c1
-43 1 -113 0 -155z m1841 196 l22 -21 21 22 c15 15 23 19 31 11 6 -6 51 -11
102 -12 49 -1 115 -4 145 -7 48 -6 56 -10 64 -34 11 -31 0 -51 -14 -28 -8 12
-41 15 -184 15 l-175 0 0 -117 c1 -125 9 -147 40 -109 18 22 23 23 206 21 203
-1 223 -6 223 -57 0 -26 -6 -29 -24 -10 -19 19 -420 13 -448 -7 -54 -38 -72
31 -62 231 7 131 12 140 53 102z m-2445 -31 c-2 -79 -74 -97 -74 -19 0 29 30
62 53 59 18 -2 22 -9 21 -40z m43 10 c-3 -8 -6 -5 -6 6 -1 11 2 17 5 13 3 -3
4 -12 1 -19z m127 -61 c-2 -44 -26 -82 -74 -114 -44 -30 -57 -29 -65 7 -4 17
-11 28 -16 24 -5 -3 -9 -2 -9 3 0 4 13 14 29 21 16 7 36 28 45 47 19 39 42 56
71 52 16 -2 20 -9 19 -40z m1166 -58 l0 -92 -22 28 c-29 38 -32 120 -4 141 11
8 21 14 23 14 2 0 3 -41 3 -91z m-1260 67 c0 -22 -24 -38 -38 -24 -20 20 -14
38 13 38 15 0 25 -6 25 -14z m-550 -6 l25 -7 -26 -7 c-14 -4 -45 -6 -70 -4
-42 4 -43 4 -19 15 29 13 54 14 90 3z m3048 -18 c3 -9 -2 -13 -14 -10 -9 1
-19 9 -22 16 -3 9 2 13 14 10 9 -1 19 -9 22 -16z m181 -8 c2 -2 -29 -3 -70 -3
-59 1 -67 3 -39 9 32 7 99 3 109 -6z m-2739 -10 c0 -8 -5 -12 -10 -9 -6 4 -8
11 -5 16 9 14 15 11 15 -7z m-482 -74 c113 -56 142 -74 142 -90 0 -31 -20 -33
-88 -6 l-63 25 26 -30 c23 -29 32 -49 20 -49 -3 0 -47 21 -98 46 -85 43 -90
47 -67 56 13 5 36 6 50 3 19 -4 15 1 -15 19 -79 48 -86 55 -75 77 6 10 14 19
19 19 4 0 71 -32 149 -70z m2982 10 c0 -22 -4 -40 -9 -40 -12 0 -41 29 -41 40
0 11 29 40 41 40 5 0 9 -18 9 -40z m274 -159 c21 -5 43 -14 49 -20 9 -9 -34
-11 -156 -9 -102 2 -167 7 -168 13 0 6 10 13 23 17 35 9 208 9 252 -1z m-3104
-6 c0 -2 -10 -10 -22 -16 -21 -11 -22 -11 -9 4 13 16 31 23 31 12z"/>
<path d="M2575 5080 c3 -5 8 -10 11 -10 2 0 4 5 4 10 0 6 -5 10 -11 10 -5 0
-7 -4 -4 -10z"/>
<path d="M1970 4900 c-8 -5 -10 -10 -5 -10 6 0 17 5 25 10 8 5 11 10 5 10 -5
0 -17 -5 -25 -10z"/>
<path d="M1810 4860 c-8 -5 -12 -12 -9 -15 4 -3 12 1 19 10 14 17 11 19 -10 5z"/>
<path d="M2156 4781 c-4 -7 -5 -15 -2 -18 9 -9 19 4 14 18 -4 11 -6 11 -12 0z"/>
<path d="M1696 4725 c-20 -30 -21 -41 -2 -26 12 10 29 51 21 51 -1 0 -10 -11
-19 -25z"/>
<path d="M1464 4642 c-10 -10 -36 -30 -56 -45 -20 -16 -44 -40 -54 -55 -10
-15 17 4 59 42 42 38 77 70 77 72 0 7 -6 4 -26 -14z"/>
<path d="M2692 4420 c0 -14 2 -19 5 -12 2 6 2 18 0 25 -3 6 -5 1 -5 -13z"/>
<path d="M2785 4420 c28 -12 88 -12 80 0 -3 6 -27 10 -53 9 -35 0 -42 -3 -27
-9z"/>
<path d="M2631 4404 c0 -11 3 -14 6 -6 3 7 2 16 -1 19 -3 4 -6 -2 -5 -13z"/>
<path d="M2715 4360 c28 -12 45 -12 45 0 0 6 -15 10 -32 9 -28 0 -30 -2 -13
-9z"/>
<path d="M1460 4340 c-8 -5 -10 -10 -5 -10 6 0 17 5 25 10 8 5 11 10 5 10 -5
0 -17 -5 -25 -10z"/>
<path d="M1407 4303 c-4 -3 -7 -11 -7 -17 0 -6 5 -5 12 2 6 6 9 14 7 17 -3 3
-9 2 -12 -2z"/>
<path d="M3370 4260 c-8 -5 -12 -11 -9 -14 3 -3 14 1 25 9 21 16 8 20 -16 5z"/>
<path d="M3040 4220 c0 -5 5 -10 11 -10 5 0 7 5 4 10 -3 6 -8 10 -11 10 -2 0
-4 -4 -4 -10z"/>
<path d="M2960 4169 c-7 -11 -10 -23 -7 -25 2 -2 9 7 15 21 14 30 7 33 -8 4z"/>
<path d="M1045 4161 c-6 -11 9 -23 19 -14 9 9 7 23 -3 23 -6 0 -12 -4 -16 -9z"/>
<path d="M3075 4090 c-4 -6 9 -10 32 -9 30 0 34 2 18 9 -27 12 -43 12 -50 0z"/>
<path d="M540 3430 c0 -5 5 -10 10 -10 6 0 10 5 10 10 0 6 -4 10 -10 10 -5 0
-10 -4 -10 -10z"/>
<path d="M537 3403 c-4 -3 -7 -11 -7 -17 0 -6 5 -5 12 2 6 6 9 14 7 17 -3 3
-9 2 -12 -2z"/>
<path d="M494 3378 c-4 -7 -4 -10 1 -6 4 4 15 2 24 -5 14 -11 14 -10 2 6 -16
20 -18 21 -27 5z"/>
<path d="M127 3203 c-12 -12 -7 -22 8 -17 8 4 15 10 15 15 0 11 -14 12 -23 2z"/>
<path d="M2885 4830 c-3 -5 -1 -10 4 -10 6 0 11 5 11 10 0 6 -2 10 -4 10 -3 0
-8 -4 -11 -10z"/>
<path d="M3085 3550 c3 -5 13 -10 21 -10 8 0 12 5 9 10 -3 6 -13 10 -21 10 -8
0 -12 -4 -9 -10z"/>
<path d="M2058 3334 c-16 -8 -28 -20 -28 -26 0 -6 6 -5 17 3 14 12 16 12 9 0
-6 -9 -4 -12 5 -9 8 3 14 9 14 14 0 5 4 15 8 22 10 15 9 15 -25 -4z"/>
<path d="M1871 3364 c0 -11 3 -14 6 -6 3 7 2 16 -1 19 -3 4 -6 -2 -5 -13z"/>
<path d="M180 3095 c-7 -8 -8 -15 -2 -15 5 0 15 7 22 15 7 8 8 15 2 15 -5 0
-15 -7 -22 -15z"/>
<path d="M1060 2833 c0 -6 -8 -19 -17 -29 -16 -16 -16 -16 7 -10 25 7 25 7 5
-10 -14 -12 -15 -15 -4 -11 9 3 22 0 28 -6 13 -13 16 -10 25 21 6 16 3 24 -11
29 -10 4 -21 11 -25 17 -5 8 -8 7 -8 -1z"/>
<path d="M1007 2754 c-4 -4 -7 -12 -7 -17 0 -6 3 -7 7 -4 3 4 14 0 24 -9 11
-10 19 -12 24 -5 3 6 1 11 -6 11 -6 0 -17 7 -23 16 -6 8 -15 12 -19 8z"/>
<path d="M967 2696 c10 -13 19 -23 21 -21 5 5 -22 45 -31 45 -4 0 0 -11 10
-24z"/>
<path d="M2690 3076 c0 -9 5 -16 10 -16 6 0 10 4 10 9 0 6 -4 13 -10 16 -5 3
-10 -1 -10 -9z"/>
<path d="M3305 2830 c3 -5 8 -10 11 -10 2 0 4 5 4 10 0 6 -5 10 -11 10 -5 0
-7 -4 -4 -10z"/>
<path d="M3127 2786 c-4 -10 -1 -13 8 -9 8 3 12 9 9 14 -7 12 -11 11 -17 -5z"/>
<path d="M3400 2530 c0 -5 5 -10 10 -10 6 0 10 5 10 10 0 6 -4 10 -10 10 -5 0
-10 -4 -10 -10z"/>
<path d="M3235 2520 c3 -5 8 -10 11 -10 2 0 4 5 4 10 0 6 -5 10 -11 10 -5 0
-7 -4 -4 -10z"/>
<path d="M3260 2506 c0 -2 8 -10 18 -17 15 -13 16 -12 3 4 -13 16 -21 21 -21
13z"/>
<path d="M3080 2420 c8 -5 20 -10 25 -10 6 0 3 5 -5 10 -8 5 -19 10 -25 10 -5
0 -3 -5 5 -10z"/>
<path d="M3888 2183 c7 -3 16 -2 19 1 4 3 -2 6 -13 5 -11 0 -14 -3 -6 -6z"/>
<path d="M4045 2100 c-3 -6 1 -7 9 -4 18 7 21 14 7 14 -6 0 -13 -4 -16 -10z"/>
<path d="M399 4923 c-13 -16 -12 -17 4 -4 9 7 17 15 17 17 0 8 -8 3 -21 -13z"/>
<path d="M359 4893 c-13 -16 -12 -17 4 -4 9 7 17 15 17 17 0 8 -8 3 -21 -13z"/>
<path d="M30 4375 c0 -8 4 -15 10 -15 5 0 7 7 4 15 -4 8 -8 15 -10 15 -2 0 -4
-7 -4 -15z"/>
</g>
</svg>
