<?xml version="1.0" standalone="no"?>
<!DOCTYPE svg PUBLIC "-//W3C//DTD SVG 20010904//EN"
 "http://www.w3.org/TR/2001/REC-SVG-20010904/DTD/svg10.dtd">
<svg version="1.0" xmlns="http://www.w3.org/2000/svg"
 width="326.000000pt" height="119.000000pt" viewBox="0 0 326.000000 119.000000"
 preserveAspectRatio="xMidYMid meet">

<g transform="translate(0.000000,119.000000) scale(0.100000,-0.100000)"
fill="#000000" stroke="none">
<path d="M2848 1083 c7 -3 16 -2 19 1 4 3 -2 6 -13 5 -11 0 -14 -3 -6 -6z"/>
<path d="M2530 1070 c0 -5 5 -10 11 -10 5 0 7 5 4 10 -3 6 -8 10 -11 10 -2 0
-4 -4 -4 -10z"/>
<path d="M2881 1076 c10 -9 69 -36 69 -32 0 6 -55 36 -66 36 -4 0 -5 -2 -3 -4z"/>
<path d="M2405 1060 c-4 -6 7 -10 27 -9 27 0 30 2 13 9 -27 12 -33 12 -40 0z"/>
<path d="M2760 1030 c-8 -5 -11 -13 -6 -17 5 -4 11 -2 13 5 7 17 30 15 37 -4
4 -9 9 -14 13 -11 8 8 -16 37 -31 37 -6 0 -18 -4 -26 -10z"/>
<path d="M2318 1017 c-21 -6 -38 -14 -38 -19 0 -13 22 -9 60 12 39 21 34 23
-22 7z"/>
<path d="M2667 1019 c7 -7 15 -10 18 -7 3 3 -2 9 -12 12 -14 6 -15 5 -6 -5z"/>
<path d="M3043 1023 c-13 -2 -23 -9 -23 -14 0 -12 10 -11 40 6 25 15 23 16
-17 8z"/>
<path d="M2170 1000 c-9 -6 -10 -10 -3 -10 6 0 15 5 18 10 8 12 4 12 -15 0z"/>
<path d="M2476 966 c-20 -25 -32 -47 -27 -50 5 -4 13 3 16 15 5 15 9 18 15 9
5 -8 10 -3 14 14 3 14 11 26 16 26 5 0 7 -8 3 -17 -6 -16 -3 -16 18 2 13 11
26 21 29 23 6 4 -22 22 -36 22 -7 0 -28 -20 -48 -44z"/>
<path d="M2940 1000 c0 -5 9 -10 20 -10 11 0 20 5 20 10 0 6 -9 10 -20 10 -11
0 -20 -4 -20 -10z"/>
<path d="M2582 974 c-18 -14 -39 -38 -47 -54 -13 -25 -13 -29 0 -34 8 -3 15
-15 15 -26 0 -23 28 -39 39 -22 4 7 14 5 31 -5 14 -8 17 -12 8 -9 -10 3 -18 1
-18 -4 0 -5 11 -9 25 -8 30 3 29 2 9 22 -17 17 -8 21 15 7 8 -5 12 -18 9 -29
-4 -16 -1 -20 13 -19 22 1 24 8 7 26 -11 11 -9 11 9 2 27 -14 23 -42 -8 -58
-17 -9 -19 -13 -7 -13 28 0 48 12 48 29 0 9 7 26 15 37 16 24 11 34 -19 35
-12 0 -41 8 -66 18 l-45 19 28 13 c25 11 34 10 92 -20 62 -32 66 -33 90 -17
31 21 35 74 6 100 -21 19 -35 8 -25 -18 9 -22 -23 -55 -47 -51 -11 2 -40 17
-64 34 -25 17 -44 27 -44 23 4 -22 -4 -31 -32 -41 -41 -14 -69 -14 -69 0 0 6
16 27 35 46 43 43 41 51 -3 17z m25 -91 c-4 -3 -1 -13 6 -21 10 -13 9 -14 -12
-3 -19 10 -21 15 -10 22 17 10 25 12 16 2z"/>
<path d="M2410 885 c0 -8 4 -15 10 -15 5 0 7 7 4 15 -4 8 -8 15 -10 15 -2 0
-4 -7 -4 -15z"/>
<path d="M2455 880 c3 -5 11 -10 16 -10 6 0 7 5 4 10 -3 6 -11 10 -16 10 -6 0
-7 -4 -4 -10z"/>
<path d="M2360 865 c-11 -13 -8 -15 15 -15 23 0 26 2 15 15 -7 8 -14 15 -15
15 -1 0 -8 -7 -15 -15z"/>
<path d="M2038 798 c-14 -13 -32 -27 -40 -33 -8 -5 -46 -34 -84 -63 l-69 -53
4 -50 c3 -48 4 -49 18 -30 22 32 33 16 33 -45 0 -60 -11 -69 -34 -26 l-15 27
0 -25 c-1 -14 10 -35 24 -49 14 -13 25 -29 25 -37 0 -17 -22 -18 -37 -3 -7 7
-12 2 -17 -17 -6 -21 -3 -32 10 -41 16 -12 15 -13 -9 -13 -17 0 -27 -5 -27
-15 0 -9 9 -15 24 -15 13 0 27 -6 30 -12 5 -10 7 -10 12 0 3 6 14 12 25 12 10
0 20 5 20 10 2 14 5 22 14 43 4 10 5 21 1 24 -3 4 -7 -2 -7 -13 -1 -10 -5 -3
-8 16 -4 19 -3 48 2 63 5 16 6 46 3 68 -4 27 -3 38 4 34 6 -4 10 4 10 18 0 24
49 76 131 138 32 24 33 27 24 65 -12 46 -32 53 -67 22z m16 -53 c-7 -16 -43
-40 -50 -33 -5 6 35 48 46 48 5 0 7 -7 4 -15z m-96 -62 c-4 -22 -22 -20 -26 1
-2 10 3 16 13 16 10 0 15 -7 13 -17z m-54 -44 c-9 -15 -24 10 -17 29 5 12 7
12 15 -2 5 -9 6 -21 2 -27z"/>
<path d="M1595 799 c-7 -10 18 -46 43 -62 6 -4 12 -14 12 -22 0 -8 11 -17 25
-21 13 -3 27 -14 30 -24 3 -11 15 -22 26 -25 10 -4 19 -11 19 -16 0 -16 46 -9
64 10 16 18 14 21 -46 64 -35 25 -78 59 -96 76 -34 31 -65 40 -77 20z m118
-71 c28 -27 52 -68 39 -68 -14 0 -102 70 -102 80 0 18 39 10 63 -12z"/>
<path d="M150 791 c-15 -9 -16 -22 -10 -186 l2 -30 11 32 c7 18 18 38 25 45 9
10 12 -10 12 -100 0 -95 -2 -111 -15 -106 -8 4 -18 18 -21 33 -3 14 -7 31 -9
36 -1 6 -6 -26 -10 -69 -7 -71 -6 -81 11 -93 17 -13 17 -13 0 -13 -15 0 -16
-3 -6 -15 17 -20 33 -19 55 5 14 16 19 37 19 92 1 42 5 73 12 75 6 2 28 -15
49 -38 29 -33 62 -52 152 -90 155 -66 182 -65 168 7 -5 29 -9 33 -20 24 -11
-9 -38 -1 -127 40 -136 63 -144 68 -126 87 12 11 21 10 57 -4 31 -12 47 -14
60 -6 9 6 32 14 51 18 19 4 46 15 59 23 31 21 59 84 53 122 -5 33 -16 39 -26
14 -4 -10 -14 -14 -26 -11 -12 3 -21 -1 -25 -12 -9 -30 -73 -64 -128 -68 -29
-3 -65 -9 -81 -15 -25 -10 -27 -15 -23 -45 6 -37 -9 -51 -41 -37 -9 4 -21 8
-27 8 -6 1 -11 38 -13 85 -4 120 0 123 145 119 105 -3 129 1 103 17 -16 10 -2
25 23 25 20 1 20 2 4 11 -9 6 -15 14 -12 19 7 11 -306 12 -325 1z m277 -363
c17 -2 46 -34 42 -47 -5 -13 -129 43 -129 58 0 5 14 5 38 -1 20 -5 43 -10 49
-10z"/>
<path d="M1030 782 c0 -33 45 -64 93 -66 24 -1 51 -7 60 -14 14 -12 17 -9 23
22 3 20 11 39 18 43 35 22 36 15 36 -197 0 -189 2 -210 18 -219 14 -8 9 -11
-23 -11 -32 0 -37 -3 -22 -11 9 -5 17 -17 17 -25 0 -10 8 -13 27 -9 44 8 83
27 77 37 -10 16 -13 258 -3 258 5 0 4 11 -1 26 -15 38 -12 74 5 74 8 0 15 4
15 9 0 4 11 7 25 6 14 -2 25 1 25 6 0 5 19 9 43 9 23 0 50 7 61 15 23 17 14
45 -14 45 -11 0 -20 5 -20 10 0 6 -83 10 -230 10 -216 0 -230 -1 -230 -18z
m133 -19 c-18 -2 -48 -2 -65 0 -18 2 -4 4 32 4 36 0 50 -2 33 -4z m270 0 c-18
-2 -48 -2 -65 0 -18 2 -4 4 32 4 36 0 50 -2 33 -4z m-124 -46 c6 -8 8 -17 4
-20 -7 -8 -33 11 -33 24 0 13 16 11 29 -4z m10 -177 c1 -78 -9 -123 -24 -109
-18 19 -22 165 -4 202 11 25 14 26 20 10 3 -10 7 -56 8 -103z"/>
<path d="M2238 789 c-24 -13 -23 -35 2 -42 11 -3 20 -10 20 -15 0 -6 -9 -9
-20 -7 -17 3 -20 -2 -20 -28 0 -24 3 -28 12 -19 27 27 38 13 38 -48 0 -64 -4
-69 -31 -44 -15 14 -17 12 -21 -21 -3 -28 1 -40 24 -62 21 -20 28 -36 28 -64
0 -21 -5 -41 -12 -45 -6 -4 -8 -3 -5 3 4 6 -2 18 -12 27 -18 16 -19 15 -23
-24 -3 -30 1 -44 12 -50 12 -8 10 -10 -10 -11 -14 -1 -29 -1 -33 0 -4 1 -3 -8
3 -19 13 -25 24 -26 16 -3 -5 14 -2 13 11 -4 30 -36 67 -12 92 60 11 34 11 41
-4 57 -11 13 -13 19 -4 22 9 3 9 9 1 24 -6 11 -7 26 -3 33 5 7 4 33 -1 57 -7
34 -7 49 3 60 16 20 20 44 8 44 -5 0 -9 5 -9 10 0 6 6 10 14 10 7 0 27 7 42
15 40 20 144 20 144 0 0 -8 4 -15 9 -15 14 0 42 30 36 40 -3 4 2 13 10 20 22
18 19 27 -16 39 -40 14 -278 14 -301 0z m200 -26 c-27 -2 -69 -2 -95 0 -27 2
-5 3 47 3 52 0 74 -1 48 -3z"/>
<path d="M2796 778 c-3 -13 -6 -42 -6 -65 0 -44 -5 -49 -30 -33 -8 5 -19 5
-25 1 -17 -14 -54 6 -61 34 -7 28 -19 33 -28 10 -3 -8 -12 -12 -21 -9 -10 4
-15 0 -15 -14 0 -12 -5 -33 -12 -47 -10 -22 -9 -27 8 -39 18 -14 18 -15 1 -21
-11 -5 -25 -1 -36 9 -14 13 -28 14 -77 7 -32 -5 -50 -9 -38 -10 11 0 29 -10
39 -21 18 -20 17 -20 -66 -20 l-84 1 28 24 28 25 -39 0 c-50 0 -55 -6 -34 -42
23 -40 38 -46 111 -49 34 -1 64 -5 66 -9 6 -9 54 0 61 11 3 5 21 9 41 9 28 0
34 3 29 16 -5 13 -1 15 19 12 26 -5 34 5 14 18 -8 4 -7 9 2 14 7 5 14 18 16
30 2 12 10 28 17 36 13 12 17 12 30 -2 10 -9 24 -13 36 -9 16 5 20 2 20 -15 0
-21 1 -22 25 -6 13 9 33 16 45 16 11 0 20 6 20 14 0 8 14 26 31 39 l32 25 28
-26 c16 -14 29 -31 29 -39 0 -7 9 -13 20 -13 18 0 19 3 9 23 -7 12 -19 27 -28
34 -9 7 -11 13 -6 13 159 11 185 19 185 51 0 14 -5 19 -14 16 -8 -3 -17 1 -20
9 -4 11 -37 14 -175 14 -166 0 -169 0 -175 -22z m332 -16 c3 -9 -24 -12 -106
-12 -61 0 -117 3 -126 6 -38 14 -8 20 106 19 87 0 123 -4 126 -13z m-291 -84
c-2 -13 -4 -5 -4 17 -1 22 1 32 4 23 2 -10 2 -28 0 -40z"/>
<path d="M894 674 c0 -26 3 -31 13 -22 7 6 13 18 13 28 0 10 -6 20 -13 23 -9
3 -13 -5 -13 -29z"/>
<path d="M2914 675 c-4 -8 -10 -12 -15 -9 -5 3 -9 -2 -9 -10 0 -11 11 -14 45
-13 50 1 54 6 27 30 -23 21 -41 22 -48 2z"/>
<path d="M792 650 c-40 -25 -49 -60 -26 -98 20 -36 13 -62 -18 -62 -21 -1 -19
-4 16 -35 22 -19 49 -35 60 -36 44 -2 72 3 90 19 10 10 20 16 22 14 11 -7 59
55 56 72 -2 10 0 16 5 13 8 -5 10 25 3 43 -1 3 -3 11 -4 17 0 7 -12 26 -25 42
l-24 29 -18 -21 c-15 -19 -20 -20 -39 -9 -47 29 -66 31 -98 12z m38 -20 c13
-24 0 -54 -30 -70 -15 -8 -21 -6 -30 10 -18 33 1 65 47 79 1 1 7 -8 13 -19z
m27 -12 c-3 -8 -6 -5 -6 6 -1 11 2 17 5 13 3 -3 4 -12 1 -19z m31 -43 c4 -9
22 -17 38 -18 24 -1 30 -6 26 -19 -7 -28 -30 -42 -45 -29 -8 6 -17 8 -20 5 -3
-4 -4 5 -2 19 4 19 0 26 -16 30 -12 3 -18 10 -14 16 9 15 23 14 33 -4z m-48
-25 c0 -5 -2 -10 -4 -10 -3 0 -8 5 -11 10 -3 6 -1 10 4 10 6 0 11 -4 11 -10z"/>
<path d="M2705 600 c-3 -5 -2 -10 4 -10 5 0 13 5 16 10 3 6 2 10 -4 10 -5 0
-13 -4 -16 -10z"/>
<path d="M2792 488 c2 -60 0 -109 -4 -109 -5 -1 -14 -2 -20 -3 -7 -1 -22 -12
-32 -24 -16 -20 -17 -25 -5 -33 24 -15 31 -10 25 19 -5 21 -2 19 15 -13 12
-22 26 -42 30 -43 5 -2 7 -8 3 -13 -3 -5 5 -9 17 -9 18 0 20 3 11 12 -20 20
-13 27 17 15 22 -8 39 -8 66 0 l37 12 -36 -36 c-40 -40 -43 -48 -21 -57 16 -6
44 28 46 54 0 12 2 12 6 1 4 -9 12 -5 28 15 19 23 31 28 75 30 41 2 57 -1 67
-14 12 -16 15 -14 38 13 28 34 32 55 11 55 -8 0 -16 6 -18 12 -4 10 -43 12
-161 9 -86 -1 -161 0 -167 4 -8 5 -5 14 9 29 16 17 31 21 75 20 45 0 54 2 45
13 -6 7 -22 13 -36 13 -15 0 -22 4 -18 11 11 16 68 6 87 -16 10 -11 17 -15 18
-8 0 6 -6 14 -12 16 -7 3 4 3 25 0 32 -5 37 -3 37 15 0 12 13 28 36 41 36 21
44 56 14 56 -8 0 -21 4 -29 9 -8 5 -74 9 -148 10 l-135 1 4 -107z m221 65
c-18 -2 -48 -2 -65 0 -18 2 -4 4 32 4 36 0 50 -2 33 -4z m-168 -74 c-6 -19 -9
-20 -22 -6 -12 12 -13 19 -3 37 11 21 13 21 22 6 5 -9 6 -26 3 -37z m218 -116
c114 -10 74 -23 -73 -23 -92 0 -140 4 -140 11 0 5 3 8 8 6 4 -3 16 -1 27 4 25
10 90 11 178 2z"/>
<path d="M2615 450 c3 -5 -1 -10 -10 -10 -9 0 -13 -5 -10 -10 4 -7 13 -7 26 0
23 13 25 30 3 30 -8 0 -12 -4 -9 -10z"/>
<path d="M2705 410 c3 -5 11 -10 16 -10 6 0 7 5 4 10 -3 6 -11 10 -16 10 -6 0
-7 -4 -4 -10z"/>
<path d="M2736 298 c3 -4 12 -8 20 -8 8 0 14 4 14 8 0 4 -9 8 -19 8 -11 0 -17
-4 -15 -8z"/>
<path d="M2850 250 c0 -5 4 -10 9 -10 6 0 13 5 16 10 3 6 -1 10 -9 10 -9 0
-16 -4 -16 -10z"/>
<path d="M2730 200 c0 -5 5 -10 11 -10 5 0 7 5 4 10 -3 6 -8 10 -11 10 -2 0
-4 -4 -4 -10z"/>
<path d="M2850 201 c0 -5 21 -21 48 -35 l47 -26 -40 34 c-41 36 -55 43 -55 27z"/>
<path d="M2730 157 c12 -16 12 -20 -1 -28 -9 -5 -10 -9 -2 -9 22 0 26 22 7 38
-17 16 -17 16 -4 -1z"/>
<path d="M2844 154 c3 -9 6 -23 6 -32 0 -13 4 -11 16 6 17 24 11 42 -13 42
-10 0 -13 -6 -9 -16z"/>
<path d="M2480 150 c0 -5 7 -7 15 -4 8 4 15 8 15 10 0 2 -7 4 -15 4 -8 0 -15
-4 -15 -10z"/>
<path d="M2815 151 c-3 -6 -9 -9 -13 -7 -4 2 -13 -2 -19 -9 -10 -11 -7 -18 15
-35 l27 -22 9 31 c10 33 -5 64 -19 42z"/>
<path d="M3050 140 c-14 -11 -21 -20 -17 -20 5 0 20 9 34 20 14 11 22 20 17
20 -5 0 -20 -9 -34 -20z"/>
<path d="M2652 125 c-1 -14 3 -25 11 -25 6 0 23 -3 37 -6 23 -5 24 -5 5 7 -11
6 -27 20 -35 31 -15 18 -16 18 -18 -7z"/>
<path d="M2287 129 c7 -7 15 -10 18 -7 3 3 -2 9 -12 12 -14 6 -15 5 -6 -5z"/>
<path d="M2973 109 c11 -7 23 -7 35 0 14 9 11 10 -18 10 -29 0 -32 -1 -17 -10z"/>
<path d="M2445 100 c-16 -7 -17 -9 -3 -9 9 -1 20 4 23 9 7 11 7 11 -20 0z"/>
<path d="M2746 96 c7 -19 38 -22 32 -3 -3 6 -12 13 -21 15 -12 2 -15 -1 -11
-12z"/>
</g>
</svg>
